<?xml version="1.0" encoding="utf-8"?>
<!-- Generator: Adobe Illustrator 23.1.0, SVG Export Plug-In . SVG Version: 6.00 Build 0)  -->
<svg version="1.1" id="Layer_1" xmlns="http://www.w3.org/2000/svg" xmlns:xlink="http://www.w3.org/1999/xlink" x="0px" y="0px"
	 viewBox="0 0 1200 1200" enable-background="new 0 0 1200 1200" xml:space="preserve">
<g>
	<g>
		<path fill="#FFFFFF" d="M751.865,852.802c-1.785,0.535-3.428,0.059-4.945-0.836c-2.255-1.33-4.235-2.875-6.433,0.421
			c-0.988,1.482-3.14,0.681-4.8,0.102c-6.505-2.269-13.289-3.742-18.914-8.228c-2.646-2.11-5.956-3.437-9.077-4.875
			c-1.309-0.603-2.919,0.419-2.855,1.653c0.624,12.096-2.074,24.117-0.735,36.221c0.465,4.205,1.948,5.715,6.862,5.506
			c10.085-0.43,18.713,2.656,24.482,11.626c2.728,4.24,8.261,4.617,11.56,8.116c0.89,0.944,1.821,1.908,1.343,3.387
			c-0.438,1.355-1.488,2-2.824,2.181c-1.712,0.234-3.437,0.37-5.15,0.595c-2.268,0.298-2.155,1.7-2.205,3.653
			c-0.144,5.62-2.199,7.878-6.495,6.694c-10.839-2.989-22.338-2.895-32.874-7.245c-1.966-0.812-4.155-1.223-6.282-1.482
			c-7.037-0.86-8.038-0.05-10.389,7.557c-0.504,1.63-1.017,3.325-1.905,4.754c-2.859,4.6-7.794,5.544-12.323,2.554
			c-4.239-2.798-6.921-6.549-6.87-11.781c0.025-2.569,0.284-5.163,0.731-7.694c0.44-2.486-0.108-4.272-2.627-5.026
			c-15.861-4.746-30.833-11.315-44.199-21.263c-0.524-0.391-1.623-0.009-2.443,0.012c-1.271,2.279,0.437,4.078,0.918,6.095
			c1.538,6.442-0.746,9.589-6.789,8.855c-8.968-1.088-18.117-1.867-24.454-9.815c-1.887-2.367-4.51-4.149-7.619-4.669
			c-5.32-0.89-9.629-3.873-13.877-6.789c-3.086-2.118-5.965-3.056-9.667-2.035c-5.956,1.642-9.792-1.449-13.001-6.129
			c-6.947-10.135-10.873-21.578-14.665-33.085c-1.487-4.511-2.753-9.097-4.021-13.677c-0.845-3.051-3.012-4.409-5.812-3.756
			c-7.558,1.761-15.02,3.935-22.547,5.836c-3.336,0.843-6.709,1.704-10.118,2.057c-4.922,0.511-9.396-1.032-13.316-4.079
			c-6.167-4.794-7.593-9.952-4.529-17.14c0.837-1.964,2.259-3.672,3.272-5.572c2.088-3.917,1.351-6.342-2.902-8.177
			c-3.557-1.535-7.26-2.865-11.022-3.772c-30.984-7.473-47.183-28.518-53.543-58.424c-1.106-5.204-3.261-9.82-5.549-14.453
			c-7.914-16.018-9.599-32.127-1.059-48.494c0.799-1.53,1.491-3.132,2.067-4.759c0.643-1.816,0.198-3.561-1.5-4.482
			c-14.229-7.716-18.324-21.012-19.764-35.753c-0.926-9.478-1.391-19.012-2.648-28.443c-1.682-12.635-0.987-25.061,2.323-37.291
			c1.315-4.858,1.578-8.942-1.536-13.425c-5.981-8.609-3.88-17.462,1.287-25.525c3.482-5.433,8.033-10.18,12.111-15.231
			c1.577-1.954,3.505-3.723,4.04-7.046c-2.247-0.076-3.884-0.328-5.474-0.156c-14.745,1.597-21.947-13.779-16.628-26.004
			c1.767-4.061,4.643-7.271,7.255-10.705c1.385-1.821,2.194-3.897,1.119-6.022c-3.619-7.153-1.51-13.575,2.676-19.471
			c3.876-5.46,4.859-10.522,1.428-16.77c-3.04-5.536-0.524-11.085,2.783-15.801c3.971-5.663,8.236-11.202,13.684-15.554
			c3.578-2.858,6.02-6.244,6.654-10.729c0.788-5.58,4.163-9.205,8.288-12.648c9.469-7.904,20.622-12.725,31.82-17.225
			c18.431-7.407,36.836-14.963,55.992-20.418c2.079-0.592,4.437-0.814,6.154-1.968c14.909-10.016,32.332-11.357,49.223-14.573
			c3.388-0.645,6.779-1.352,10.094-2.294c18.714-5.319,37.424-10.615,56.993-11.81c6.043-0.369,12.065-1.047,18.11,0.206
			c2.087,0.433,4.333,0.548,6.451,0.31c10.424-1.169,20.643-0.081,30.962,1.599c7.618,1.24,15.491,0.857,23.233,1.427
			c3.427,0.252,6.89,0.791,10.203,1.692c9.278,2.525,12.324,7.252,11.383,17.056c-0.556,5.799-0.167,7.089,4.702,9.233
			c9.117,4.016,18.161,8.134,26.717,13.269c4.331,2.599,9.054,2.3,13.873,1.927c8.175-0.633,16.308-1.664,24.593-0.634
			c9.534,1.185,18.679,3.474,27.508,7.197c3.189,1.344,6.46,2.49,9.672,3.78c3.383,1.358,6.385,1.746,9.601-0.976
			c5.553-4.7,11.956-4.206,18.392-1.882c22.808,8.234,46.547,13.331,69.624,20.66c1.192,0.379,2.514,0.35,3.991,0.539
			c3.055-5.301,3.888-10.127-0.402-15.374c-2.002-2.449-0.062-6.283,2.958-7.204c4.224-1.289,8.577-1.688,12.773-0.181
			c22.838,8.199,45.09,17.065,62.826,34.929c27.928,28.129,51.269,59.627,71.959,93.262c15.19,24.693,30.251,49.471,42.797,75.639
			c9.926,20.702,17.491,42.249,22.207,64.811c1.95,9.33,3.847,18.599,4.559,28.116c0.749,10.011-0.584,19.837-2.22,29.643
			c-0.955,5.73-3.341,10.873-8.233,14.23c-3.398,2.331-5.274,5.582-7.252,8.946c-10.676,18.158-24.939,33.081-41.604,45.807
			c-12.714,9.708-25.072,19.943-38.286,28.916c-13.22,8.977-27.297,16.694-41.019,24.927c-2.223,1.334-4.544,2.505-6.84,3.713
			c-3.975,2.091-6.975,4.955-8.275,9.449c-1.969,6.808-5.538,12.684-10.949,17.316c-4.106,3.516-5.896,8.469-8.342,13.008
			c-3.554,6.593-7.204,12.826-15.809,13.824c-1.883,0.218-3.593,2.229-5.31,3.511c-3.121,2.329-6.055,4.933-9.317,7.036
			c-2.659,1.715-5.323,4.916-8.919,0.898c-1.481-1.655-3.158,0.39-4.53,1.187c-5.236,3.042-10.335,6.324-15.607,9.301
			c-3.973,2.244-7.187,6.063-12.839,4.875c-1.893-0.398-4.49,2.16-6.653,3.541c-3.275,2.091-6.387,4.443-9.693,6.479
			c-2.58,1.589-4.859-0.182-4.781-3.538c0.048-2.069,1.632-4.034,0.147-6.678c-4.403,1.095-9.181,2.134-10.58,7.291
			c-1.709,6.302-8.171,3.268-11.389,6.447c-0.427,0.422-2.423-0.245-3.338-0.902c-3.495-2.51-6.845-5.222-10.467-8.027
			c-0.999,2.219-1.81,4.021-2.627,5.836c-4.51-0.969-7.194-7.267-12.961-3.936c-0.691,0.399-2.346-0.696-3.476-1.257
			c-11.225-5.572-22.132-11.937-33.74-16.536c-9.615-3.81-18.821-8.576-28.55-11.948c-4.819-1.67-9.612-3.441-14.08-5.615
			c-2.755,2.992,0.857,5.064,0.179,7.457L751.865,852.802z"/>
	</g>
	<g>
		<path fill="#DA836C" d="M174.686,799.533c-1.834,2.857-0.676,4.797,0.202,6.729c1.069,2.352,2.371,4.609,3.287,7.015
			c0.668,1.755-0.163,3.503-1.398,4.719c-1.677,1.651-3.904,2.041-5.934,0.776c-2.184-1.361-4.261-2.96-6.158-4.702
			c-6.364-5.844-12.614-11.811-18.937-17.7c-1.851-1.724-3.369-3.988-7.149-4.256c-4.038,6.695-7.055,14.17-8.812,22.177
			c-0.554,2.523-0.709,5.134-1.275,7.653c-0.506,2.251-1.986,3.883-4.312,4.307c-2.9,0.527-5.069-0.845-6.393-3.336
			c-1.003-1.886-2.263-3.906-2.404-5.936c-0.928-13.332-3.372-26.617-1.37-40.063c1.037-6.965,3.725-13.28,7.15-19.322
			c1.951-3.441,4.691-6.157,8.172-8.138c2.391-1.36,4.863-2.148,7.33-0.635c7.073,4.337,14.653,6.942,22.941,7.725
			c2.066,0.195,4.258,1.159,5.994,2.35c4.983,3.415,10.276,4.1,16.037,2.795c5.694-1.291,10.183,0.807,13.662,5.283
			c2.192,2.82,3.784,5.888,2.36,9.58c-2.194,5.691,0.315,9.912,3.854,14.113c3.33,3.953,6.294,8.226,9.268,12.464
			c1.559,2.222,2.213,4.707,0.322,7.173c-1.995,2.603-4.606,2.066-7.031,1.03c-5.949-2.542-11.752-5.426-17.731-7.889
			C182.513,801.86,178.459,800.778,174.686,799.533z"/>
	</g>
	<g>
		<path fill="#FFFFFF" d="M751.969,852.679c1.065,0.093,1.505,0.539,1.197,1.288c-0.035,0.086-0.716,0.074-0.875-0.098
			c-0.243-0.262-0.292-0.704-0.424-1.068C751.865,852.802,751.969,852.679,751.969,852.679z"/>
	</g>
	<g>
		<path fill="#DF943A" d="M88.403,682.123c-6.849-13.505-14.272-26.766-18.351-41.984c3.839,0.896,4.384,5.683,8.307,5.222
			c0.061,1.133,0.49,1.996,1.688,2.297c0.084,0.181,0.135,0.394,0.267,0.53c0.076,0.078,0.406,0.055,0.41,0.036
			c0.078-0.406-0.17-0.584-0.71-0.525c0.064-1.157-0.298-2.076-1.435-2.56c-4.155-7.857-8.459-15.635-11.622-23.981
			c-0.758-1.999-1.669-3.892-1.595-6.082l-0.057,0.071c4.201,3.244,6.225,8.514,11.606,12.88c-1.164-4.918-1.431-8.6-2.889-11.728
			c-4.529-9.718-5.754-20.311-8.64-30.454c-3.369-11.842-4.806-24.098-6.974-36.181c-2.088-11.64,0.251-23.241,2.488-34.691
			c4.932-25.241,14.011-48.859,26.637-71.337c7.54-13.424,14.973-26.759,25.202-38.346c2.145-2.43,4.19-4.941,6.724-7.019
			c1.324-1.086,2.658-2.345,3.5-3.807c9.969-17.297,25.123-29.968,39.007-43.755c2.107-2.092,4.912-3.517,7.494-5.086
			c7.223-4.39,13.685-9.701,20.203-15.085c7.464-6.166,16.512-10.181,25.726-13.361c7.334-2.531,14.83-4.593,22.247-6.887
			c9.548-2.953,18.143-7.562,25.231-14.725c1.188-1.2,2.69-1.3,4.178-1.451c4.304-0.438,8.606-0.988,12.924-1.188
			c17.534-0.812,34.909-3.021,51.89-7.348c7.209-1.837,14.411-2.447,21.693-3.087c9.268-0.815,18.341-2.519,27.408-4.7
			c7.638-1.838,15.506-3.299,23.556-1.337c5.89,1.436,11.975,1.766,18.026,0.926c3.064-0.425,6.05,0.095,9.036,0.4
			c10.409,1.062,20.895-1.401,31.282,0.775c1.43,0.3,3.028-0.011,4.52-0.232c6.932-1.03,13.712-0.674,20.537,1.169
			c3.482,0.941,7.31,1.293,10.907,0.998c15.238-1.251,29.951,2.461,44.856,4.34c1.254,0.158,2.577,0.628,3.641,1.309
			c6.369,4.075,13.641,6.586,19.619,11.319c2.083,1.65,4.223,2.019,6.627,0.811c1.097-0.551,2.104-0.547,2.491,0.896
			c0.323,1.201-0.248,2.162-1.165,2.799c-1.512,1.05-3.266,0.994-5.007,0.745c-6.29-0.9-12.334,0.283-18.55,1.34
			c-9.931,1.689-19.71,5.169-30.056,3.753c-1.03-0.141-2.484-0.214-3.131,0.364c-5.3,4.732-12.086,5.378-18.511,7.069
			c-13.902,3.661-26.543,10.311-39.205,16.85c-13.298,6.867-25.803,14.934-36.809,25.199c-1.608,1.5-3.342,2.756-3.826,5.025
			c-2.102,9.848-8.193,17.515-13.968,25.314c-3.087,4.169-6.575,8.04-9.868,12.057c-0.669,0.817-1.463,1.603-1.167,3.373
			c5.727,0.656,11.465,1.813,17.184-1.333c3.965-2.181,8.188-3.912,12.576-5.149c1.242-0.35,2.476-0.775,3.743-0.981
			c2.113-0.343,3.937,0.38,5,2.24c1.307,2.286-0.725,3.53-1.91,4.961c-1.016,1.228-2.555,1.502-3.97,2.048
			c-2.761,1.065-5.451,2.316-7.964,4.298c2.63-0.24,5.26-0.482,7.89-0.72c2.313-0.209,4.389,0.119,5.26,2.676
			c0.824,2.42-0.349,4.237-2.076,5.702c-2.181,1.85-4.87,2.891-7.535,3.684c-5.437,1.617-10.332,3.803-14.643,7.788
			c-3.486,3.222-8.534,3.995-13.069,5.403c-1.377,0.428-3.114,0.137-3.945,2.353c8.801,2.236,17.398,4.573,26.048-0.374
			c2.064-1.18,4.32-1.943,6.766-2.082c2.296-0.13,4.427,0.018,5.396,2.506c0.831,2.133,0.795,4.235-0.869,6.065
			c-10.282,11.306-19.72,23.365-31.117,33.682c-4.612,4.175-8.271,9.413-12.275,14.241c-0.931,1.123-1.992,2.613-0.543,4.011
			c1.041,1.004,2.499,0.574,3.664-0.001c1.351-0.666,2.614-1.526,3.871-2.369c12.759-8.559,26.372-15.643,39.806-23.033
			c1.868-1.028,3.936-1.903,6.015-2.286c3.401-0.625,5.32,1.778,4.406,5.129c-0.591,2.167-2.14,3.722-3.481,5.415
			c-8.782,11.086-19.582,20.094-30.2,29.279c-7.226,6.25-13.661,13.173-18.839,21.221c-1.03,1.6-2.104,3.238-1.774,5.702
			c2.207,0.244,3.475-1.374,4.887-2.482c9.875-7.75,20.483-14.453,30.797-21.573c1.863-1.286,3.737-2.963,7.379-2.372
			c-4.602,5.338-8.443,10.446-12.96,14.864c-5.545,5.424-11.766,10.149-17.458,15.433c-1.935,1.796-6.721,2.507-3.836,7.154
			c0.104,0.168-1.451,1.367-2.234,2.085c-4.441,4.069-5.328,5.736-5.812,11.226c3.061-0.075,5.805-1.273,8.657-1.968
			c7.535-1.836,15.092-3.581,22.651-5.32c0.828-0.191,1.73-0.201,2.582-0.123c1.385,0.128,2.45,0.83,2.889,2.215
			c0.445,1.405-0.095,2.552-1.161,3.445c-2.867,2.401-6.223,3.971-9.734,5.05c-8.715,2.678-16.874,6.635-25.066,10.531
			c-1.548,0.736-3.238,1.401-4.131,2.997c-0.545,0.974-0.569,2.085,0.301,2.986c0.708,0.733,1.605,0.628,2.381,0.235
			c0.959-0.485,1.911-1.053,2.718-1.756c2.092-1.823,3.949-2.565,6.97-1.31c3.234,1.343,6.617-0.879,9.922-1.572
			c4.639-0.972,9.212-2.275,13.868-3.143c6.306-1.176,6.596-0.986,13.007,3.567c-10.362,5.885-22.064,8.733-33.254,16.023
			c7.085,0.053,12.206-2.329,17.609-2.995c3.061-0.378,6.955-3.148,8.776,0.082c1.251,2.219-2.952,4.149-4.851,6.114
			c-6.306,6.522-12.554,13.1-18.83,19.651c-1.046,1.092-1.958,2.429-3.214,3.183c-7.11,4.267-9.011,11.688-11.963,18.398
			c1.817,1.678,2.71,0.36,3.6-0.433c10.748-9.576,23.619-15.959,35.572-23.722c2.584-1.678,5.539-2.46,8.417-3.307
			c1.892-0.557,4.523-1.914,5.754,0.762c0.962,2.091-1.084,3.521-2.551,4.761c-2.476,2.093-5,4.133-7.573,6.105
			c-1.718,1.317-3.302,2.698-4.367,4.691c7.343,2.272,9.145,5.891,6.599,13.007c-0.728,2.034-1.641,4.001-2.479,5.995
			c-0.415,0.988-1.375,2.075-1.197,2.932c1.891,9.132-3.73,16.187-6.931,23.67c-7.667,17.924-12.123,36.398-12.454,55.874
			c-0.071,4.193-1.319,8.549,1.687,13.024c5.279-5.209,10.332-10.123,15.303-15.118c6.311-6.342,13.644-11.283,21.329-15.748
			c0.917-0.533,1.937-1.038,2.965-1.202c2.946-0.469,4.525,1.523,3.427,4.294c-0.978,2.467-2.947,4.196-4.687,6.131
			c-11.274,12.541-21.523,25.891-30.992,39.841c-0.186,0.275,0.01,0.81,0.051,1.763c4.579,0.109,9.219,0.421,13.844,0.272
			c4.534-0.146,9.048-0.645,13.568,0.17c0.626,0.113,1.448-0.262,1.92,0.021c4.789,2.873,9.937,2.365,15.192,2.129
			c2.654-0.119,5.036,1.238,7.816-0.958c2.493-1.97,6.135,1.227,5.924,5.146c-0.15,2.796-0.751,5.706-2.4,8.005
			c-4.433,6.184-3.67,13.425-4.234,20.596c4.776-5.938,9.541-11.884,14.338-17.805c0.949-1.172,1.843-2.515,3.068-3.309
			c2.036-1.319,4.514-1.369,5.51,1.107c0.985,2.45,2,3.881,4.841,4.228c2.58,0.316,3.132,2.769,3.13,5.025
			c-0.001,2.79,0.696,5.022,3.308,6.516c2.004,1.146,3.006,3.085,3,5.427c-0.009,3.609,2.039,6.175,3.658,9.227
			c4.323,8.15,9.284,16.209,10.986,25.482c0.716,3.904,2.247,7.412,3.566,11.059c0.972,2.687,0.391,5.228-2.017,6.939
			c-1.885,1.339-4.073,1.522-6.08,0.186c-0.87-0.579-1.554-1.492-2.201-2.345c-1.808-2.381-3.661-2.738-6.706-1.689
			c-9.474,3.263-19.315,4.078-29.354,3.621c-18.309-0.833-36.508-3.023-54.79-4.1c-7.098-0.418-14.232,0.443-21.352,0.616
			c-18.651,0.454-36.936-1.542-55.346-4.488c-24.196-3.871-47.506-11.071-71.229-16.694c-12.891-3.056-24.742-9.093-37.214-13.357
			c-9.622-3.29-18.9-7.263-27.656-12.509c-8.899-5.331-16.045-12.396-21.52-21.094c-2.122-3.372-4.345-6.103-8.611-5.594
			c-9.31,1.111-17.992-1.773-26.736-4.059c-11.575-3.026-22.575-7.442-32.263-14.7c-1.017-0.762-2.265-1.334-3.494-1.679
			c-11.017-3.089-18.148-11.302-25.464-19.257c-0.85-0.924-1.524-2.112-1.962-3.296c-4.146-11.19-10.296-21.402-15.485-32.082
			c-1.017-2.093-2.471-4.125-2.273-6.669l-0.052,0.065c2.637,0.632,2.944,4.125,5.683,4.632c0.071,0.15,0.117,0.325,0.225,0.44
			c0.062,0.065,0.226,0.033,0.345,0.044c-0.208-0.139-0.416-0.278-0.625-0.417c0.042-3.92-3.051-6.546-4.14-10.02
			c-0.95-3.03-3.048-5.73-2.5-9.605c3.516,1.135,5.523,3.928,7.888,6.19c1.678,1.605,2.89,3.856,5.706,3.653
			c-0.072,0.684,0.074,1.29,0.692,1.67c0.058,0.035,0.442-0.239,0.45-0.383C89.57,682.666,89.121,682.265,88.403,682.123z
			 M177.988,744.829c5.897,2.883,13.364,3.349,17.477,1.347C189.97,743.512,184.603,743.461,177.988,744.829z M415.094,410.949
			c0.34-0.201,0.68-0.402,1.02-0.604c-0.303-0.188-0.599-0.517-0.911-0.531c-0.523-0.024-1.192,0.031-1.155,0.792
			C414.056,410.737,414.728,410.835,415.094,410.949z M399.98,590.468c-0.093-0.114-0.17-0.298-0.282-0.323
			c-0.147-0.033-0.378,0.008-0.473,0.11c-0.278,0.298-0.135,0.505,0.356,0.481C399.718,590.73,399.848,590.562,399.98,590.468z"/>
	</g>
	<g>
		<path fill="#DF943A" d="M719.379,719.755c8.249-3.465,16.545,0.966,25.066-0.908c-2.649-2.53-6.152-2.816-8.994-4.32
			c-3.438-1.82-6.063-0.045-9.025,1.494c-5.03,2.615-11.621-0.616-12.297-6.467c-0.901-7.8-1.103-15.473-4.624-22.924
			c-2.011-4.257-1.561-9.742-0.43-14.722c0.916-4.029,0.77-8.084,0.462-12.222c-0.695-9.342,2.414-17.941,6.458-26.126
			c7.954-16.101,18.79-29.9,33.248-40.773c3.695-2.779,7.76-5.326,11.061-10.327c-6.232,0.318-11.261-1.971-16.632,0.16
			c-4.355,1.728-8.57,0.585-12.122-2.384c-3.318-2.773-6.87-5.23-10.259-7.867c-6.815-5.303-11.169-12.674-13.391-20.952
			c-1.454-5.416,0.755-10.198,5.175-13.783c4.189-3.397,9.218-5.633,13.12-9.422c12.315-11.958,23.35-24.931,31.307-40.266
			c7.097-13.676,15.279-26.622,25.599-38.102c8.974-9.982,18.195-19.723,30.768-25.375c0.958-0.431,2.006-0.88,2.445-2.353
			c-2.061-1.899-4.934-3.113-6.448-5.819c-1.941-3.471-1.611-5.41,1.941-7.342c1.404-0.763,2.774-1.15,2.713-3.068
			c-0.161-5.083,2.943-7.839,7.034-9.94c1.131-0.581,2.341-1.156,3.117-2.676c-2.804-3.408-4.785-7.111-0.821-11.209
			c0.91-0.941,0.523-2.043-0.148-2.949c-2.792-3.77-1.319-7.058,1.43-9.849c2.166-2.199,4.461-4.089,3.662-7.619
			c-0.042-0.184,0.13-0.408,0.166-0.619c0.296-1.738,3.434-2.28,2.442-4.127c-1.315-2.45-3.714-4.161-6.251-5.466
			c-5.016-2.58-10.558-1.87-15.88-2.442c-14.147-1.522-28.407-1.919-42.488-4.099c-22.276-3.449-43.02-11.11-62.131-23.086
			c-4.048-2.537-7.958-5.396-10.041-9.888c-1.546-3.334-4.154-4.656-7.53-5.342c-13.184-2.678-25.901-6.875-38.248-12.191
			c-2.178-0.938-4.331-1.979-6.37-3.185c-2.399-1.419-3.988-3.574-3.229-6.459c0.656-2.494,2.64-3.848,5.253-4.182
			c5.369-0.686,10.785-1.687,16.161-1.078c13.773,1.561,27.303,4.429,40.363,9.16c4.052,1.468,8.254,2.499,12.152,4.49
			c2.699,1.378,5.797,1.412,8.894,1.059c8.176-0.933,16.334-1.222,24.552,0.103c3.748,0.604,7.696,0.677,10.861-2.653
			c1.818-1.913,4.401-2.311,7.227-1.841c10.009,1.667,20.141,2.694,30.064,4.747c7.578,1.568,14.904,4.346,22.354,6.542
			c15.323,4.517,30.514,9.411,46.149,12.935c15.999,3.606,31.843,8.165,46.745,15.219c5.417,2.564,10.382,6.145,15.37,9.533
			c5.116,3.474,8.528,8.303,11.216,13.957c8.63,18.145,17.731,36.064,26.448,54.168c3.558,7.389,7.761,14.481,10.523,22.244
			c0.796,2.236,2.472,4.758,2.001,6.732c-1.406,5.9,1.982,9.722,4.567,14.169c3.904,6.715,6.178,14.231,10.254,20.942
			c5.423,8.93,12.763,16.336,18.687,24.843c1.37,1.967,2.5,4.009,3.524,6.17c1.832,3.867,1.442,7.327-2.044,9.775
			c-2.847,1.999-2.221,3.784-0.551,5.89c9.585,12.081,15.167,25.996,19.184,40.737c1.754,6.438,4.494,12.604,6.707,18.922
			c6.492,18.54,11.315,37.578,16.604,56.472c1.795,6.412,1.465,13.267,3.208,19.793c0.708,2.65-0.251,5.624-2.128,7.905
			c-1.522,1.85-2.028,3.534-0.839,5.878c1.869,3.686,0.991,7.295-1.703,10.205c-2.246,2.427-3.307,4.904-2.569,8.2
			c0.869,3.885-0.691,7.244-2.757,10.374c-1.728,2.616-2.29,5.288-2.164,8.518c0.368,9.448-5.307,16.119-11.31,22.495
			c-1.031,1.095-2.136,2.202-3.406,2.978c-5.093,3.111-7.194,6.946-5.069,13.144c1.619,4.722-1.304,8.789-4.203,12.374
			c-5.822,7.199-13.493,12.083-21.418,16.569c-17.845,10.101-37.027,16.425-57.157,20.044c-2.756,0.495-5.439,1.415-8.201,1.861
			c-9.49,1.532-18.663,1.476-28.048-2.004c-9.893-3.668-20.85-3.556-30.983-6.732c-12.653-3.965-26.077-3.456-38.834-6.846
			c-2.104-0.559-3.977-1.139-5.898-2.271c-18.637-10.979-37.956-20.646-57.834-29.155c-5.545-2.374-11.445-3.916-17.176-5.857
			c-2.067-0.7-4.122-1.26-3.734-4.32c0.285-2.243-1.933-2.599-3.434-3.281c-7.085-3.217-14.216-6.335-21.294-9.566
			C723.463,723.151,720.877,722.903,719.379,719.755z M980.696,577.191c1.681-0.259,4.493-0.506,7.202-1.173
			c1.995-0.491,3.422-1.661,2.719-4.253c-1.864-6.868-3.494-13.87-6.764-20.187c-3.161-6.105-6.868-12.227-13.055-15.678
			c-5.076-2.832-10.945-3.687-16.775-4.479c-9.663-1.313-18.864,1.053-28.169,2.76c-3.96,0.726-4.85,1.933-3.867,5.781
			c1.384,5.421,2.799,10.861,4.671,16.126c4.725,13.282,15.835,18.311,28.427,20.429
			C963.117,577.867,971.393,577.801,980.696,577.191z"/>
	</g>
	<g>
		<path fill="#EABE92" d="M75.852,687.163c-0.175-0.061-0.504-0.128-0.502-0.183c0.012-0.374,0.193-0.29,0.449,0.249
			C75.8,687.228,75.852,687.163,75.852,687.163z"/>
	</g>
	<g>
		<path fill="#FFFFFF" d="M177.988,744.829c6.615-1.368,11.981-1.317,17.477,1.347C191.352,748.178,183.885,747.712,177.988,744.829
			z"/>
	</g>
	<g>
		<path fill="#FFFFFF" d="M415.094,410.949c-0.365-0.113-1.038-0.211-1.045-0.342c-0.038-0.762,0.632-0.816,1.155-0.792
			c0.311,0.014,0.608,0.343,0.911,0.531C415.774,410.546,415.434,410.748,415.094,410.949z"/>
	</g>
	<g>
		<path fill="#FFFFFF" d="M88.403,682.123c0.717,0.143,1.167,0.543,1.122,1.308c-0.008,0.144-0.393,0.418-0.45,0.383
			c-0.618-0.38-0.764-0.986-0.692-1.67C88.382,682.144,88.403,682.123,88.403,682.123z"/>
	</g>
	<g>
		<path fill="#FFFFFF" d="M78.579,645.138c1.137,0.484,1.499,1.403,1.435,2.56l0.034-0.041c-1.198-0.3-1.628-1.164-1.688-2.297
			C78.356,645.364,78.579,645.138,78.579,645.138z"/>
	</g>
	<g>
		<path fill="#FFFFFF" d="M399.98,590.468c-0.133,0.094-0.262,0.262-0.399,0.268c-0.492,0.024-0.634-0.183-0.356-0.481
			c0.095-0.102,0.327-0.143,0.473-0.11C399.811,590.17,399.888,590.354,399.98,590.468z"/>
	</g>
	<g>
		<path fill="#FFFFFF" d="M81.428,691.927c0.208,0.139,0.416,0.278,0.625,0.417c-0.118-0.012-0.283,0.021-0.345-0.044
			c-0.108-0.115-0.154-0.29-0.225-0.44C81.483,691.859,81.428,691.927,81.428,691.927z"/>
	</g>
	<g>
		<path fill="#FFFFFF" d="M80.014,647.699c0.54-0.059,0.788,0.119,0.71,0.525c-0.004,0.019-0.334,0.042-0.41-0.036
			c-0.131-0.136-0.182-0.349-0.267-0.53C80.048,647.657,80.014,647.699,80.014,647.699z"/>
	</g>
	<g>
		<path fill="#FFFFFF" d="M980.696,577.191c-9.303,0.611-17.579,0.677-25.612-0.674c-12.591-2.118-23.702-7.147-28.427-20.429
			c-1.872-5.265-3.288-10.704-4.671-16.126c-0.982-3.849-0.092-5.055,3.867-5.781c9.305-1.706,18.505-4.073,28.169-2.76
			c5.831,0.792,11.7,1.648,16.775,4.479c6.187,3.452,9.895,9.573,13.055,15.678c3.27,6.317,4.9,13.319,6.764,20.187
			c0.703,2.592-0.724,3.762-2.719,4.253C985.189,576.685,982.377,576.931,980.696,577.191z"/>
	</g>
	<g>
		<path fill="#5D210E" d="M927.215,548.255c0.508-4.27,1.928-8.15,2.637-12.393c-3.675-0.7-6.42,1.535-9.547,2.123
			c1.316-4.726,6.668-9.764,12.524-11.399c11.876-3.317,23.974-3.842,35.956-1.078c9.099,2.1,15.763,7.683,19.45,16.563
			c3.775,9.092,5.143,18.732,6.717,28.322c0.343,2.09-0.008,4.319-0.223,6.466c-0.177,1.764-1.541,3.312-2.984,2.006
			c-2.518-2.279-3.519-0.49-5.12,0.917c-2.493,2.191-5.659,3.095-8.792,3.964c-24.355,6.759-47.917-2.604-56.781-31.979
			c-0.876-2.904-1.032-5.974-0.305-8.992c0.258-1.072,0.753-2.127,1.987-2.282c1.217-0.153,2.06,0.631,2.457,1.698
			C925.932,544.188,926.547,546.231,927.215,548.255z M954.685,531.808c-0.511,0.047-1.835,0.007-3.076,0.308
			c-5.961,1.444-7.516,5.576-4.062,10.609c3.865,5.631,13.568,7.7,19.721,4.204c5.567-3.163,5.912-7.67,0.84-11.732
			C964.409,532.234,960.231,530.815,954.685,531.808z M979.374,573.484c2.339,0.677,3.776-0.566,5.339-1.045
			c4.83-1.481,4.805-1.583,2.56-7.34C984.625,567.91,982.089,570.603,979.374,573.484z"/>
	</g>
	<g>
		<path fill="#5D210E" d="M638.337,298.14c-21.07-3.72-40.812-2.038-61.487,2.53c5.595,2.059,10.895,1.197,15.272,4.08
			c-26.816,0.812-53.417,2.697-79.125,11.739c5.575,0.058,11.154-0.005,16.724,0.207c5.472,0.208,11.032-0.32,16.473,1.778
			c-35.036-0.279-68.188,8.472-101.547,20.941c1.132-4.565,3.893-6.173,6.53-7.718c8.465-4.96,17.675-8.028,27.137-10.441
			c8.632-2.201,17.454-3.035,26.285-3.842c1.86-0.17,4.17,0.179,2.765-3.178c-0.564-1.347,1.203-2.03,2.257-2.744
			c4.161-2.819,8.737-4.702,13.551-6.054c1.621-0.455,3.401-0.508,4.745-1.684c-0.333-2.071-2.102-2.114-3.299-2.798
			c-16.786-9.601-34.922-16.063-52.947-22.796c-3.289-1.229-6.921-2.118-9.676-5.721c4.979-1.552,9.084-0.486,13.156,0.629
			c10.084,2.762,19.309,7.538,28.519,12.328c9.033,4.698,17.385,10.516,25.944,15.989c1.462,0.935,2.606,2.106,4.59,1.815
			c11.793-1.735,23.707-1.534,35.573-2.086c1.799-0.084,3.466,0.235,3.422-2.481c-0.033-2.064,1.845-2.706,3.386-3.487
			c2.345-1.189,4.864-1.788,7.436-2.191c15.973-2.503,31.861-2.164,47.604,1.649C633.609,295.082,635.846,295.338,638.337,298.14z"
			/>
	</g>
	<g>
		<path fill="#5D210E" d="M211.365,782.494c-5.327-2.556-5.201-7.443-7.813-10.61c-1.796,2.438,1.458,4.485,0.113,6.995
			c-2.905-0.367-4.317-2.741-5.433-4.806c-1.845-3.412-4.441-4.811-8.174-5.291c-15.511-1.992-30.412-6.55-45.296-11.143
			c-0.413-0.127-0.839-0.213-1.255-0.33c-1.667-0.469-2.608-1.546-2.468-3.303c0.139-1.727,1.289-2.661,2.877-3.094
			c2.15-0.587,4.263-0.339,6.403,0.199c4.005,1.006,7.818,2.528,11.607,4.123c8.98,3.78,18.099,7.172,27.485,9.807
			c1.195,0.336,2.362,1.202,4.246,0.265c-6.763-3.426-8.25-9.853-9.949-16.131c-2.675-9.887-3.353-20.056-3.902-30.209
			c-0.923-17.089-0.816-34.17,1.765-51.141c0.772-5.076,1.477-10.211,4.341-14.823c-2.356,16.544-2.968,33.095-1.632,49.713
			c1.326,16.495,2.584,32.992,7.481,48.984c0.835-14.286,0.139-28.703,7.323-41.797c0.714,4.827-1.633,9.313-1.422,14.11
			c0.219,4.961-0.192,9.948-0.01,14.912c0.182,4.967,0.565,9.944,1.211,14.871c0.63,4.802,1.706,9.545,3.48,14.263
			c0.133-12.73-0.132-25.345,4.761-37.357c1.057,8.451-0.236,16.862,0.41,25.286C208.172,764.588,210.886,772.882,211.365,782.494z"
			/>
	</g>
	<g>
		<path fill="#5D210E" d="M365.622,283.566c13.519,3.916,27.347,7.102,40.146,14.484c-1.778,1.596-3.121,0.694-4.391,0.287
			c-26.423-8.462-53.66-11.006-81.223-11.212c-4.106-0.031-8.214-0.129-12.316-0.308c-1.007-0.044-2.244-0.313-2.297-1.704
			c-0.037-0.964,0.799-1.428,1.549-1.89c2.288-1.408,4.893-1.735,7.452-2.033c6.879-0.799,13.777-1.101,20.715-0.707
			c2.727,0.155,6.043,1.337,7.093-3.204c0.392-1.695,2.918-1.505,4.603-1.727c7.561-0.996,15.086-0.597,22.611,0.521
			c21.466,3.188,42.386,8.363,62.32,17.097c4.624,2.026,9.195,4.229,12.843,8.031C419.72,289.21,392.79,286.178,365.622,283.566z"/>
	</g>
	<g>
		<path fill="#5D210E" d="M712.552,539.93c0.731-2.296,2.288-2.825,3.442-3.681c14.385-10.674,25.116-24.298,32.715-40.439
			c5.537-11.761,12.161-22.915,18.8-34.062c8.845-14.849,21.201-25.475,37.649-31.142c2.926-1.008,2.928-1.002,7.32-0.413
			c-2.027,2.66-4.662,3.997-7.166,5.349c-15.07,8.137-26.517,19.824-35.05,34.635c-5.726,9.939-11.358,19.903-16.089,30.36
			c-8.124,17.957-21.746,30.388-39.229,38.911C714.404,539.711,713.733,539.702,712.552,539.93z"/>
	</g>
	<g>
		<path fill="#5D210E" d="M182.831,335.5c2.463-1.982,4.973-3.885,7.507-5.694c4.291-3.062,8.816-5.84,13.635-7.994
			c2.372-1.06,4.813-1.976,7.317-2.674c1.423-0.397,6.688-0.51,7.555-1.394c-0.666,0.678-82.071,83.59-82.449,83.976
			c0.395-4.534,2.151-8.01,3.761-11.431c7.489-15.92,16.497-29.094,26.712-40.025C171.755,345.036,177.169,340.057,182.831,335.5z"
			/>
	</g>
	<g>
		<path fill="#5D210E" d="M699.558,909.575c5.672-1.367,11.118,0.023,16.538,1.438c4.392,1.146,8.722,2.529,13.118,3.655
			c2.473,0.633,5.001,1.27,7.617,0.838c0.906-2.325-0.801-3.386-1.863-4.482c-5.418-5.591-11.045-10.981-16.408-16.622
			c-3.54-3.724-6.598-7.931-12.605-7.586c-1.242,0.071-2.565-0.792-2.724-2.323c-0.199-1.915,1.297-2.559,2.731-3.101
			c1.675-0.634,3.4-0.381,5.129-0.173c6.946,0.838,13.557,2.661,19.592,6.336c7.945,4.836,15.922,9.618,23.885,14.425
			c0.555,0.335,1.12,0.659,1.652,1.028c1.481,1.025,2.821,2.231,2.265,4.243c-0.615,2.229-2.488,2.913-4.546,2.894
			c-3.912-0.036-7.677-0.779-11.079-2.648c-0.103-2.373,2.736-0.933,2.981-3.076c-8.604-4.828-17.339-9.729-26.074-14.63
			c0.518,2.959,2.555,4.011,4.321,5.333c5.538,4.143,11.527,7.742,16.283,12.836c2.46,2.635,5.605,5.502,3.875,9.587
			c-1.635,3.863-5.737,3.204-9.095,3.564c-2.839,0.305-5.632-0.312-8.333-1.042c-7.721-2.088-15.396-4.347-23.091-6.531
			c-2.137-0.607-4.299-1.17-4.042-4.118L699.558,909.575z"/>
	</g>
	<g>
		<path fill="#5D210E" d="M1141.304,665.698c-9.881,4.113-19.422,8.712-29.669,11.35c0.237,3.345,2.817,4.656,4.578,6.349
			c8.494,8.162,9.212,17.811,5.941,28.37c-2.516,8.122-7.438,14.639-13.894,19.932c-12.221,10.021-25.319,18.803-38.977,26.75
			c-0.56,0.326-1.146,0.606-1.717,0.912c-1.153,0.618-2.448,1.4-3.525,0.198c-1.292-1.442-0.511-2.918,0.718-3.936
			c2.324-1.925,4.698-3.815,7.205-5.489c10.246-6.84,20.544-13.609,29.887-21.684c7.95-6.872,13.529-15.622,19.084-24.388
			c1.392-2.196,0.703-3.904-0.636-5.78c-3.521-4.933-7.242-9.69-11.491-14.023c-1.36-1.387-2.82-2.717-3.956-4.275
			c-2.457-3.372-1.933-6.276,2.035-7.781C1117.941,668.011,1129.432,665.723,1141.304,665.698z"/>
	</g>
	<g>
		<path fill="#5D210E" d="M176.118,343.267c-0.725,0.867-1.675,1.127-2.759,1.024c-10.275,6.082-17.742,15.06-24.876,24.333
			c-17.809,23.149-31.234,48.77-42.237,75.714c-3.842,9.406-7.332,18.956-10.985,28.44c-0.92,2.388-1.844,4.773-3.351,8.675
			c-1.644-4.852-1.5-8.27-0.791-11.76c1.251-6.157,3.017-12.168,5.067-18.101c12.352-35.739,32.043-66.98,57.973-94.367
			c5.52-5.831,11.692-10.918,18.735-14.873C174.323,341.55,175.688,340.687,176.118,343.267z"/>
	</g>
	<g>
		<path fill="#5D210E" d="M185.609,543.499c0.79,0.899,0.222,1.666-0.196,2.356c-14.461,23.844-21.908,50.109-26.608,77.302
			c-2.022,11.696-3.782,23.438-5.684,35.155c-0.311,1.914-0.666,3.83-1.16,5.703c-0.266,1.009-0.78,2.134-2.106,2.047
			c-1.278-0.084-1.809-1.294-2.011-2.24c-0.494-2.306-1.024-4.689-0.942-7.021c1.408-40.228,12.711-77.302,35.566-110.64
			C183.23,545.046,183.678,543.297,185.609,543.499z"/>
	</g>
	<g>
		<path fill="#5D210E" d="M736.045,850.671c-7.318-6.799-14.644-13.593-19.066-22.827c6.83,5.561,12.386,12.419,19.335,17.752
			c6.957,5.34,14.236,10.151,22.8,13.099c-3.271-3.875-6.609-7.694-9.793-11.639c-3.26-4.04-6.182-8.334-8.682-12.891
			c-2.428-4.426-5.079-8.777-5.57-14.109c10.923,20.104,27.59,34.788,46.85,48.783c-5.563,1.496-8.606-0.124-11.439-1.87
			c-3.354-2.067-6.55-3.941-10.794-3.425c-1.814,0.221-4.019-0.316-5.622-1.242c-9.696-5.603-20.904-7.81-30.376-13.996
			c-9.248-6.039-18.382-12.177-26.743-19.408c-1.623-1.404-3.385-2.723-4.319-4.76c-0.476-1.039-0.605-2.123,0.281-2.996
			c0.88-0.867,2.105-0.851,2.992-0.26c1.791,1.193,3.477,2.566,5.102,3.984c9.941,8.669,19.77,17.476,30.852,24.718
			c1.074,0.702,2.204,1.318,3.307,1.973C735.455,851.26,735.75,850.966,736.045,850.671z"/>
	</g>
	<g>
		<path fill="#5D210E" d="M137.437,796.447c-2.204,3.823-2.415,7.756-3.331,11.452c-1.453,5.865-2.495,11.858-5.191,17.333
			c-3.799,7.714-6.764,8.047-11.808,1.202c-8.82-11.969-10.104-25.825-9.879-40.079c0.125-7.953,2.92-14.731,8.134-20.606
			c1.292-1.455,2.638-2.902,4.645-3.348c0.845-0.188,1.712-0.083,2.397,0.594c0.818,0.809,0.414,1.63-0.154,2.232
			c-10.348,10.977-9.708,24.313-8.213,37.856c0.716,6.49,2.016,12.793,5.386,18.506c0.761,1.289,1.432,2.638,3.328,3.839
			c8.225-11.616,8.609-26.458,15.585-38.578c1.186,1.092,0.581,2.171,0.365,3.152c-0.265,1.204-0.274,2.23,1.257,2.258
			c3.454,0.064,5.468,2.386,7.382,4.716c7.56,9.207,16.243,17.209,26.077,24.335c-4.839,0.035-7.355-1.379-19.556-9.889
			C147.832,807.218,142.971,801.762,137.437,796.447z"/>
	</g>
	<g>
		<path fill="#5D210E" d="M861.967,501.055c-2.607,1.232-4.528,3.249-6.356,5.415c-4.333,5.137-8.081,10.691-11.839,16.247
			c-9.214,13.625-18.633,27.094-30.613,38.526c-2.977,2.841-5.989,5.649-9.518,7.793c-1.459,0.887-3.051,1.64-4.679,2.14
			c-1.483,0.456-3.15,0.349-3.892-1.361c-0.743-1.712,0.934-2.039,1.878-2.819c8.379-6.933,15.666-14.887,21.924-23.773
			c7.473-10.611,14.864-21.28,23.258-31.204c7.755-9.169,16.655-16.969,27.275-22.668c1.405-0.754,2.71-2.328,4.934-1.324
			c-0.669,2.548-3.129,3.348-4.697,4.945c-2.659,2.71-6.63,4.168-7.865,8.237L861.967,501.055z"/>
	</g>
	<g>
		<path fill="#5D210E" d="M208.087,810.089c-6.699-14.174-14.138-26.586-22.314-38.912c2.913-0.732,4.155,0.959,5.402,2.256
			c7.351,7.648,14.121,15.759,19.271,25.101c1.676,3.039,3.1,6.187,3.43,9.7c0.499,5.32-2.011,8.121-7.527,8.076
			c-5.049-0.041-9.746-1.553-14.242-3.87c-3.754-1.934-7.184-4.652-11.362-5.606c-1.454,2.274-0.389,4.184-0.431,6.043
			c-0.039,1.735,0.008,3.451-0.722,5.081c-0.546,1.221-1.189,2.424-2.744,2.259c-1.379-0.147-1.385-1.464-1.548-2.469
			c-2.141-13.192-7.323-25.219-14.214-36.93c1.957-0.817,2.823,0.601,3.708,1.591c4.47,5,8.652,10.232,11.659,16.267
			c1.076,2.159,2.127,3.032,4.892,2.697c4.24-0.514,7.774,2.196,11.361,4.147C197.046,807.881,201.353,810.266,208.087,810.089z"/>
	</g>
	<g>
		<path fill="#5D210E" d="M76.099,534.011c-5.958-3.454-8.564-8.767-9.951-14.752c-1.686-7.274-1.376-14.583-0.011-21.883
			c1.315-7.032,3.208-13.909,5.974-20.495c10.503-25.007,23.466-48.631,39.899-70.277c0.783-1.031,1.606-2.035,2.482-2.986
			c0.203-0.221,0.696-0.174,1.438-0.332c-0.469,2.336-2.028,3.866-3.175,5.555c-14.664,21.594-25.584,45.049-34.502,69.485
			c-2.372,6.498-3.914,13.238-5.176,20.052c-1.843,9.951-1.814,19.751,1.43,29.44C75.182,529.834,75.576,531.945,76.099,534.011z"/>
	</g>
	<g>
		<path fill="#5D210E" d="M174.113,596.338c1.181,1.222,0.628,2.196,0.233,3.192c-7.836,19.757-10.151,40.581-11.902,61.518
			c-1.318,15.767-1.082,31.541-0.358,47.322c0.05,1.081,0.232,2.184,0.081,3.238c-0.246,1.717,0.966,4.459-1.782,4.714
			c-2.311,0.214-2.777-2.422-3.392-4.173c-2.322-6.609-3.156-13.537-3.068-20.453c0.367-28.725,4.516-56.85,14.342-83.968
			C169.71,603.746,171.249,599.72,174.113,596.338z"/>
	</g>
	<g>
		<path fill="#5D210E" d="M758.641,311.998c-7.229-3.08-14.038-6.707-21.356-9.253c-13.878-4.827-27.986-8.787-42.376-11.75
			c-13.318-2.742-26.663-5.272-40.3-5.891c-1.997-0.091-5.336,0.456-5.49-2.058c-0.191-3.124,3.205-3.441,5.715-3.868
			c6.235-1.061,12.502-0.861,18.701,0.121c24.892,3.94,48.709,11.349,71.292,22.581
			C749.979,304.442,754.932,307.369,758.641,311.998z"/>
	</g>
	<g>
		<path fill="#5D210E" d="M708.989,546.359c1.051,0.992,1.224,1.823,1.155,2.706c-0.68,8.769,3.56,15.01,10.56,19.47
			c14.203,9.048,29.647,12.853,46.458,10.091c6.851-1.126,13.555-2.792,19.886-5.733c0.98-0.455,1.933-0.981,3.138-0.573
			c0.807,1.857-0.984,2.033-1.864,2.589c-9.437,5.962-19.61,10.142-30.681,11.746c-17.354,2.515-31.859-3.848-44.54-15.115
			c-4.496-3.995-7.095-9.24-7.787-15.296C704.807,551.803,705.538,549.848,708.989,546.359z"/>
	</g>
	<g>
		<path fill="#5D210E" d="M196.798,346.411c-0.016-5.747,2.92-9.604,6.674-12.94c7.169-6.371,15.313-11.348,24.028-15.165
			c24.602-10.776,50.234-17.025,77.289-16.383c2.112,0.05,4.278-0.125,6.319,1.152c-0.498,1.329-1.689,1.008-2.53,1.03
			c-30.248,0.8-58.078,10.143-84.651,23.921c-3.258,1.689-6.441,3.526-9.613,5.374C208,337.078,201.785,340.898,196.798,346.411z"/>
	</g>
	<g>
		<path fill="#5D210E" d="M1124.312,574.468c-3.727-5.842-6.255-11.542-8.781-17.231c-9.221-20.759-17.633-41.84-25.168-63.273
			c-2.945-8.376-6.211-16.626-11.69-23.773c-1.219-1.59-2.563-3.47-0.505-5.079c1.833-1.433,3.742-0.113,5.271,1.141
			c4.114,3.372,6.721,7.882,9.047,12.54c3.886,7.781,6.301,16.111,8.615,24.442c6.315,22.729,13.617,45.117,22.599,66.941
			C1124.177,571.332,1124.724,572.44,1124.312,574.468z"/>
	</g>
	<g>
		<path fill="#5D210E" d="M175.607,630.132c-2.496,14.672-3.743,28.166-4.152,41.717c-0.411,13.619,0.424,27.182,1.849,40.748
			c1.407,13.388,6.646,26.059,8.201,40.282c-3.954-1.051-4.689-3.447-5.706-5.387c-5.82-11.11-8.31-23.17-9.228-35.506
			c-1.873-25.15,0.501-50.033,5.674-74.669C172.672,635.276,172.741,633.009,175.607,630.132z"/>
	</g>
	<g>
		<path fill="#5D210E" d="M1048.366,446.049c-5.697-9.394-11.382-18.796-17.094-28.181c-9.341-15.349-19.359-30.236-30.507-44.341
			c-5.791-7.329-12.094-14.139-19.957-19.343c-0.677-0.448-1.185-1.149-2.216-2.175c2.946-1.936,5.47-1.42,8.041-0.275
			c5.03,2.24,9.166,5.696,12.953,9.604c5.594,5.774,10.285,12.266,14.67,18.967c12.93,19.76,23.629,40.759,34.11,61.873
			c0.554,1.116,0.827,2.372,1.23,3.563C1049.188,445.844,1048.777,445.946,1048.366,446.049z"/>
	</g>
	<g>
		<path fill="#5D210E" d="M1145.714,650.991c-3.478-6.465-3.834-13.672-4.688-20.604c-3.564-28.935-11.518-56.751-20.545-84.328
			c-0.201-0.614-0.542-1.189-0.684-1.813c-0.251-1.104-0.151-2.13,0.927-2.848c1.086-0.724,2.161-0.374,3.017,0.241
			c2.562,1.842,3.845,4.656,5.059,7.416c3.41,7.749,5.53,15.92,7.657,24.087c4.713,18.097,6.874,36.547,7.806,55.18
			C1144.641,635.869,1145.056,643.418,1145.714,650.991z"/>
	</g>
	<g>
		<path fill="#5D210E" d="M359.698,298.003c-6.166-0.789-12.32-1.686-18.5-2.348c-21.285-2.283-42.334-0.223-63.208,3.917
			c-9.747,1.933-19.371,4.484-29.064,6.697c-2.429,0.555-6.14,2.258-7.002-0.341c-1.03-3.106,3.072-4.088,5.463-5.146
			c8.349-3.694,17.185-6.005,26.129-7.479c26.679-4.396,53.355-5.057,79.844,1.572C355.601,295.435,358.072,295.467,359.698,298.003
			z"/>
	</g>
	<g>
		<path fill="#5D210E" d="M848.63,313.918c-1.899,0.887-3.249-0.544-4.71-1.153c-29.59-12.334-60.332-18.228-92.425-16.636
			c-0.864,0.043-1.728,0.129-2.593,0.139c-1.919,0.023-4.406,0.456-4.704-2.129c-0.281-2.431,2.275-2.944,4.028-3.479
			c5.641-1.723,11.512-2.211,17.346-1.961c28.332,1.212,55.013,8.516,79.882,22.225C846.671,311.594,848.359,311.939,848.63,313.918
			z"/>
	</g>
	<g>
		<path fill="#5D210E" d="M476.055,303.238c-2.132,0.554-3.701-0.864-5.331-1.675c-26.551-13.198-54.8-20.784-83.902-25.622
			c-3.057-0.508-6.468-0.28-9.536-3.667c5.479-1.803,10.536-1.793,15.511-1.396c4.716,0.376,9.449,1.105,14.055,2.187
			c23.938,5.622,46.46,14.729,67.29,27.88C474.972,301.469,476.117,301.776,476.055,303.238z"/>
	</g>
	<g>
		<path fill="#5D210E" d="M73.358,681.782c1.808,1.764,2.294,3.6,3.026,5.316c9.441,22.123,24.545,39.923,42.544,55.476
			c4.453,3.848,9.596,6.56,15.214,8.379c1.187,0.384,2.768,0.95,2.46,2.524c-0.265,1.351-1.716,1.785-3.066,1.97
			c-3.782,0.518-7.295-0.49-10.664-2.015c-4.781-2.163-8.882-5.371-12.508-9.089c-15.834-16.234-28.923-34.264-36.036-56.106
			C73.711,686.343,72.629,684.451,73.358,681.782z"/>
	</g>
	<g>
		<path fill="#5D210E" d="M931.252,343.779c-3.332-1.954-6.689-3.866-9.992-5.868c-16.718-10.134-34.711-16.474-54.203-18.53
			c-3.856-0.407-7.678-1.267-11.465-2.141c-1.766-0.408-4.446-0.568-4.133-3.141c0.228-1.88,2.553-2.001,4.253-2.22
			c6.048-0.78,12.095-0.566,18.115,0.259c7.138,0.978,13.805,3.526,20.393,6.317c13.476,5.709,25.336,14.013,36.831,22.901
			c0.446,0.345,0.661,0.988,0.984,1.493C931.774,343.159,931.513,343.469,931.252,343.779z"/>
	</g>
	<g>
		<path fill="#5D210E" d="M1080.21,487.792c-3.837-7.173-7.656-14.355-11.515-21.516c-7.685-14.262-16.361-27.925-25.125-41.536
			c-1.748-2.714-3.309-5.559-4.789-8.43c-0.818-1.587-1.123-3.458,0.577-4.698c1.819-1.327,3.31-0.116,4.46,1.23
			c1.539,1.801,3.005,3.682,4.323,5.65c11.102,16.572,19.524,34.534,27.232,52.854
			C1077.596,476.627,1080.262,481.776,1080.21,487.792z"/>
	</g>
	<g>
		<path fill="#5D210E" d="M963.82,486.042c3.29-0.123,4.543,1.18,5.849,2.174c14.444,10.988,28.734,22.167,41.678,34.943
			c4.617,4.557,8.87,9.446,12.761,14.639c1.163,1.551,2.227,3.183,3.246,4.833c0.812,1.314,1.574,2.877-0.067,3.997
			c-1.36,0.928-2.37-0.37-3.27-1.236c-2.333-2.243-4.591-4.564-6.929-6.802C999.32,521.587,982.901,503.231,963.82,486.042z"/>
	</g>
	<g>
		<path fill="#5D210E" d="M1056.821,760.346c-14.708,8.617-28.124,16.379-41.91,23.501c-11.934,6.165-24.125,11.681-37.064,15.419
			c-2.704,0.781-5.398,1.631-8.254,1.516c-1.123-0.045-2.189-0.51-2.542-1.659c-0.426-1.387,0.066-2.633,1.401-3.246
			c1.762-0.81,3.571-1.57,5.43-2.11c26.078-7.575,50.496-19.116,74.702-31.171c1.738-0.865,3.524-1.636,5.316-2.385
			C1054.245,760.067,1054.716,760.231,1056.821,760.346z"/>
	</g>
	<g>
		<path fill="#5D210E" d="M517.814,328.942c-36.568,2.185-68.01,18.118-99.873,33.239c-0.714-1.714,0.856-2.564,1.781-3.505
			c2.886-2.937,6.073-5.55,9.701-7.522c26.011-14.132,53.675-22.477,83.36-23.688C514.256,327.406,515.813,327.001,517.814,328.942z
			"/>
	</g>
	<g>
		<path fill="#5D210E" d="M75.723,572.92c-3.388,0.829-5.244-1.465-7.046-3.45c-2.959-3.259-4.636-7.28-5.989-11.407
			c-6.541-19.95-7.774-40.214-3.456-60.784c0.221-1.055,0.538-2.098,0.915-3.107c0.12-0.322,0.581-0.517,1.864-1.584
			C59.544,520.971,63.875,547.466,75.723,572.92z"/>
	</g>
	<g>
		<path fill="#5D210E" d="M881.679,762.907c-0.11,1.445-1.374,1.446-2.342,1.556c-21.255,2.406-42.407,5.913-63.873,6.108
			c-2.151,0.02-4.332,0.186-6.365-0.821c-1.261-0.625-2.1-1.534-2.008-3.004c0.096-1.538,1.172-2.291,2.529-2.487
			c2.565-0.37,5.147-0.769,7.73-0.839c20.739-0.561,41.48-1.051,62.221-1.54C880.365,761.861,881.299,761.787,881.679,762.907z"/>
	</g>
	<g>
		<path fill="#5D210E" d="M504.442,301.661c-25.322-15.269-53.926-21.31-82.979-30.083c3.426-2.131,5.747-2.262,7.995-2.148
			c3.229,0.163,6.53,0.28,9.649,1.039c22.45,5.469,43.739,13.636,62.472,27.557C502.78,298.92,504.143,299.663,504.442,301.661z"/>
	</g>
	<g>
		<path fill="#5D210E" d="M483.749,347.725c-2.148,0.632-3.907,1.284-5.724,1.665c-22.186,4.651-41.645,14.99-59.604,28.48
			c-1.895,1.424-3.81,2.827-5.781,4.141c-1.046,0.697-2.273,1.6-3.501,0.459c-1.465-1.361-0.576-2.804,0.272-4.05
			c0.845-1.242,1.831-2.401,2.847-3.512c4.267-4.669,9.255-8.421,14.887-11.269c16.436-8.31,33.228-15.554,51.975-16.648
			C480.48,346.912,481.956,346.213,483.749,347.725z"/>
	</g>
	<g>
		<path fill="#5D210E" d="M940.076,776.468c-5.3,2.99-10.639,3.864-15.789,5.248c-12.908,3.468-25.827,6.9-38.774,10.219
			c-6.283,1.611-12.704,2.479-19.199,2.647c-1.477,0.038-3.334,0.179-3.679-1.734c-0.317-1.762,1.246-2.674,2.646-3.232
			c1.996-0.795,4.048-1.573,6.149-1.964c22.258-4.14,44.53-8.204,66.806-12.252C938.532,775.346,938.915,775.776,940.076,776.468z"
			/>
	</g>
	<g>
		<path fill="#5D210E" d="M955.112,459.427c2.07,0.923,3.389,2.878,4.892,4.556c13.458,15.032,28.019,28.739,45.656,38.888
			c3.344,1.924,6.352,4.462,9.393,6.87c1.46,1.155,3.193,2.287,3.223,4.52c-1.453,1.562-2.881,0.523-4.143-0.076
			c-13.345-6.323-25.89-13.763-35.995-24.853c-8.153-8.948-15.852-18.244-23.004-28.002
			C954.772,460.836,954.206,460.332,955.112,459.427z"/>
	</g>
	<g>
		<path fill="#5D210E" d="M435.202,545.414c-3.11,5.179-7.356,6.345-11.411,7.442c-8.738,2.365-17.556,4.438-26.361,6.545
			c-5.415,1.296-10.659,3.366-16.225,3.865c-0.647-1.56-0.392-2.781,0.827-3.573c15.94-10.359,32.66-19.077,51.216-23.951
			c-4.88,4.475-11.317,6.059-17.019,8.996c-5.724,2.949-11.617,5.6-16.659,9.921C410.935,551.238,422.455,548.573,435.202,545.414z"
			/>
	</g>
	<g>
		<path fill="#5D210E" d="M1001.919,531.046c2.747,0.178,4.874,1.56,6.701,3.328c2.638,2.551,5.329,5.094,7.636,7.933
			c10.808,13.307,19.732,27.851,27.714,42.986c1.609,3.051,3.127,6.198,3.183,9.775c0.014,0.876-0.192,1.768-1.087,2.184
			c-0.949,0.442-1.667-0.129-2.167-0.832c-0.875-1.232-1.63-2.548-2.459-3.813c-8.194-12.487-14.901-25.834-22.412-38.716
			C1014.232,545.667,1009.251,537.56,1001.919,531.046z"/>
	</g>
	<g>
		<path fill="#5D210E" d="M660.532,869.3c8.298,6.884,17.53,12.402,27.111,19.612c-2.972-15.757-3.7-30.505-3.05-45.589
			c2.442,0.405,2.109,1.921,2.319,2.993c2.487,12.719,4.989,25.436,7.351,38.179c0.451,2.434,1.81,5.6-0.781,7.208
			c-2.31,1.433-5.46,0.762-7.934-0.516C675.467,885.979,667.14,878.665,660.532,869.3z"/>
	</g>
	<g>
		<path fill="#5D210E" d="M800.415,845.971c9.24,9.106,14.97,19.108,22.671,27.611c-3.106-8.326-8.42-15.737-9.541-24.875
			c9.144,16.208,19.37,31.564,32.419,44.892c-0.438,0.213-0.954,0.645-1.145,0.531c-5.021-2.989-11.265-3.75-15.46-8.187
			c-9.511-10.06-18.406-20.636-26.128-32.153c-0.956-1.426-1.737-2.979-2.484-4.529
			C800.497,848.744,800.605,848.054,800.415,845.971z"/>
	</g>
	<g>
		<path fill="#5D210E" d="M111.122,724.882c-1.748-1.89-3.449-3.827-5.252-5.663c-14.895-15.169-28.208-31.492-37.143-50.994
			c-1.706-3.724-3.318-7.524-3.443-11.718c-0.046-1.535,0.141-3.215,2.036-3.517c1.697-0.271,1.975,1.436,2.497,2.502
			c2.087,4.258,4.044,8.58,6.076,12.866c9.39,19.807,20.773,38.277,36.248,54.002c0.245,0.249,0.288,0.699,0.425,1.055
			C112.086,723.904,111.604,724.393,111.122,724.882z"/>
	</g>
	<g>
		<path fill="#5D210E" d="M831.061,738.15c-0.828,2.246-2.325,2.028-3.513,2.224c-17.518,2.878-35.12,5.054-52.848,6.093
			c-4.125,0.242-8.234,0.038-11.967-2.103c-1.411-0.809-2.434-1.967-2.095-3.666c0.375-1.881,1.996-2.164,3.557-2.034
			c21.648,1.806,43.228-0.566,64.839-0.999C829.645,737.652,830.262,737.951,831.061,738.15z"/>
	</g>
	<g>
		<path fill="#5D210E" d="M989.212,807.132c1.087,2.608-0.372,4.487-1.318,6.285c-9.729,18.488-21.763,35.331-36.474,50.192
			c-4.225,4.268-4.808,4.289-9.679,3.963c1.618-5.237,5.822-8.507,8.941-12.474c3.204-4.075,6.781-7.857,10.183-11.777
			c3.26-3.757,6.559-7.482,9.746-11.301c3.326-3.984,6.662-7.97,9.766-12.125C983.432,815.807,986.202,811.506,989.212,807.132z"/>
	</g>
	<g>
		<path fill="#5D210E" d="M313.936,794.652c-4.106,0.852-8.186,1.875-12.324,2.528c-18.165,2.865-36.339,5.671-54.528,8.379
			c-3.408,0.508-6.894,0.52-10.349,0.669c-1.785,0.077-3.466-0.407-4.676-1.827c-0.751-0.881-0.885-1.961-0.336-3.019
			c0.424-0.816,1.219-1.461,2.073-1.236c8.083,2.123,15.791-0.819,23.621-1.759c18.68-2.243,37.436-3.549,56.15-5.352
			C313.69,793.574,313.813,794.113,313.936,794.652z"/>
	</g>
	<g>
		<path fill="#5D210E" d="M643.633,497.267c0.626-0.69,0.959-1.403,1.473-1.575c22.126-7.4,43.607-16.441,65.06-25.553
			c0.58-0.246,1.209-0.187,2.066,0.908c-3.066,1.874-6.108,3.715-9.131,5.586c-11.217,6.945-22.827,13.131-35.017,18.21
			c-5.437,2.266-11.062,3.675-16.962,3.844C648.615,498.759,646.082,498.805,643.633,497.267z"/>
	</g>
	<g>
		<path fill="#5D210E" d="M195.682,507.245c-7.139,14.604-16.993,27.755-23.743,42.574c-6.693,14.692-12.881,29.58-18.047,44.911
			c-2.321-1.062-1.313-2.923-1.128-4.282c1.049-7.72,3.031-15.214,5.907-22.467c4.307-10.86,9.426-21.32,15.72-31.164
			c6.493-10.157,13.165-20.199,19.758-30.291C194.66,506.766,195.171,507.006,195.682,507.245z"/>
	</g>
	<g>
		<path fill="#5D210E" d="M831.342,562.379c3.548-5.221,6.617-9.86,9.809-14.413c8.92-12.723,19.367-24.352,27.139-37.902
			c0.854-1.489,1.918-3.139,4.035-2.362c2.025,0.743,1.969,2.624,1.808,4.385c-0.263,2.874-1.575,5.359-3.023,7.778
			c-2.568,4.288-5.854,8.02-9.192,11.699c-8.706,9.596-17.447,19.16-26.195,28.718C834.889,561.194,834.25,562.459,831.342,562.379z
			"/>
	</g>
	<g>
		<path fill="#5D210E" d="M928.782,834.275c0.24,1.739-0.84,3.132-1.609,4.535c-8.011,14.614-16.763,28.767-26.542,42.27
			c-2.158,2.979-4.5,5.825-7.396,8.141c-1.35,1.08-2.75,2.127-4.562,2.313c-1.144,0.117-2.142-0.145-2.769-1.214
			c-0.501-0.855-0.248-1.688,0.229-2.419c0.589-0.901,1.253-1.76,1.952-2.579c13.628-15.964,26.561-32.465,38.456-49.767
			C926.995,834.895,927.334,834,928.782,834.275z"/>
	</g>
	<g>
		<path fill="#5D210E" d="M439.681,826.774c-2.983,2.271-6.799,2.106-10.23,2.757c-17.817,3.377-35.635,6.799-53.694,8.691
			c-2.782,0.292-5.608,0.668-8.375-0.058c-0.762-0.2-1.576-0.699-1.764-1.67c-0.207-1.067,0.554-1.676,1.285-2.01
			c1.358-0.62,2.801-1.089,4.248-1.474c8.184-2.174,16.597-2.81,24.98-3.602c14.401-1.36,28.81-2.642,43.216-3.957
			C439.458,825.893,439.569,826.333,439.681,826.774z"/>
	</g>
	<g>
		<path fill="#5D210E" d="M102.307,661.207c-5.261,0.073-9.678-1.965-13.682-4.98c-3.996-3.009-7.582-6.492-10.494-10.549
			c-8.74-12.178-15.829-25.227-20.307-39.601c-1.03-3.307-1.542-6.697-0.857-10.491c1.866,4.756,3.628,9.556,5.625,14.256
			c2.117,4.982,4.848,9.66,7.767,14.213c3.033,4.732,6.102,9.444,9.275,14.082c3.06,4.474,6.65,8.53,10.473,12.363
			C93.905,654.306,97.772,658.047,102.307,661.207z"/>
	</g>
	<g>
		<path fill="#5D210E" d="M439.405,642.194c-6.955,9.802-13.692,19.709-20.455,29.603c-6.635,9.706-10.592,20.934-17.376,30.606
			c-1.23-7.718,0.876-14.555,4.307-21.039c4.783-9.038,11.233-16.906,17.825-24.643
			C428.315,651.312,433.109,646.063,439.405,642.194z"/>
	</g>
	<g>
		<path fill="#5D210E" d="M78.589,598.012c-3.675-0.568-5.598-2.944-7.675-4.963c-1.224-1.19-2.308-2.594-3.176-4.067
			c-10.346-17.548-16.274-36.492-17.731-56.817c-0.058-0.816,0.242-1.657,0.373-2.478c2.926-0.152,2.507,2.118,2.755,3.591
			c2.674,15.873,8.159,30.773,15.501,45.025c2.267,4.4,4.834,8.645,7.185,13.003C76.893,593.292,78.529,595.102,78.589,598.012z"/>
	</g>
	<g>
		<path fill="#5D210E" d="M939.899,389.66c5.072,9.657,10.574,18.861,16.945,27.548c6.528,8.902,13.698,17.223,21.705,24.835
			c2.493,2.37,4.713,5.032,6.995,7.616c0.584,0.662,0.724,1.597,0.202,2.396c-0.613,0.938-1.589,0.63-2.307,0.267
			c-1.34-0.678-2.627-1.488-3.852-2.361c-5.477-3.9-10.51-8.311-14.729-13.56c-10.071-12.53-18.119-26.271-24.107-41.188
			C940.073,393.522,938.972,391.785,939.899,389.66z"/>
	</g>
	<g>
		<path fill="#5D210E" d="M861.777,501.21c3.048-0.205,3.78,1.664,3.423,4.131c-0.629,4.339-2.382,8.262-4.805,11.911
			c-3.595,5.414-7.967,10.206-12.068,15.216c-6.561,8.015-13.582,15.664-19.357,24.305c-0.469,0.701-0.936,1.449-2.745,0.799
			c9.146-20.661,25.352-36.782,35.729-56.51C861.967,501.055,861.777,501.21,861.777,501.21z"/>
	</g>
	<g>
		<path fill="#5D210E" d="M51.385,567.088c2.625,1.205,2.536,3.933,3.281,5.981c4.508,12.395,9.781,24.397,16.985,35.499
			c4.123,6.353,8.734,12.299,14.032,17.72c1.343,1.374,2.503,2.944,3.598,4.527c0.265,0.382,0.09,1.243-0.152,1.758
			c-0.313,0.668-1.117,0.663-1.685,0.418c-1.376-0.594-2.764-1.213-4.025-2.014c-4.426-2.813-8.065-6.449-11.018-10.787
			c-10.719-15.743-17.016-33.301-21.246-51.707C51.069,568.104,51.284,567.655,51.385,567.088z"/>
	</g>
	<g>
		<path fill="#5D210E" d="M778.355,732.984c-7.647,0.326-15.195,0.651-22.743,0.969c-2.831,0.119-5.638-0.162-8.279-1.174
			c-1.589-0.609-3.376-1.535-2.865-3.696c0.432-1.827,2.168-1.871,3.711-1.825c2.803,0.083,5.604,0.237,8.407,0.343
			c14.492,0.551,28.875-1.696,43.347-1.688c0.862,0,1.729-0.168,2.586-0.123c1.382,0.073,3.506-0.696,3.564,1.51
			c0.048,1.814-1.963,2.037-3.439,2.251C794.526,730.726,786.401,731.852,778.355,732.984z"/>
	</g>
	<g>
		<path fill="#5D210E" d="M338.453,804.166c-2.966,1.406-5.735,1.521-8.417,1.667c-18.383,1-36.491,4.293-54.736,6.434
			c-3.211,0.377-6.46,0.611-9.69,0.6c-2.21-0.008-5.608,0.721-5.75-2.459c-0.117-2.612,3.128-2.324,5.135-2.594
			c7.07-0.953,14.146-1.888,21.241-2.633c16.136-1.694,32.323-2.484,48.549-2.43C335.829,802.755,336.935,802.53,338.453,804.166z"
			/>
	</g>
	<g>
		<path fill="#5D210E" d="M476.352,791.255c4.06-7.456,7.709-14.666,13.592-20.434c-5.53,13.134-12.014,25.828-16.226,39.328
			c-1.849,0.123-1.774-1.087-1.935-2.104c-2.36-14.893,0.622-29.155,5.117-43.236c0.261-0.819,0.568-1.628,0.912-2.415
			c0.452-1.032,1.173-1.975,2.378-1.781c1.597,0.258,1.97,1.695,1.776,2.983c-0.384,2.546-0.911,5.087-1.607,7.566
			c-1.34,4.77-2.865,9.487-4.259,14.242C475.626,787.016,474.794,788.651,476.352,791.255z"/>
	</g>
	<g>
		<path fill="#5D210E" d="M601.768,894.147c-4.814-4.284-8.651-8.932-12.511-13.548c-9.863-11.796-18.552-24.382-25.19-38.29
			c-0.937-1.963-3.448-4.695-0.902-6.321c2.794-1.784,4.493,1.442,5.839,3.498c2.005,3.062,3.756,6.297,5.515,9.513
			c7.772,14.213,16.146,28.04,25.945,40.971C601.184,890.919,602.463,891.746,601.768,894.147z"/>
	</g>
	<g>
		<path fill="#5D210E" d="M947.868,827.936c0.539,2.156-0.822,3.471-1.618,4.848c-9.216,15.935-19.47,31.179-30.853,45.648
			c-2.802,3.561-5.753,7.063-9.93,9.173c-1.141,0.576-2.409,1.341-3.431-0.103c-0.739-1.044-0.171-2.053,0.513-2.941
			c0.792-1.028,1.601-2.042,2.409-3.058c13.863-17.428,28.824-33.989,41.392-52.441
			C946.649,828.624,947.245,828.387,947.868,827.936z"/>
	</g>
	<g>
		<path fill="#5D210E" d="M844.558,751.315c-0.817,2.202-2.766,2.046-4.384,2.37c-15.934,3.188-32.043,4.501-48.278,4.463
			c-1.959-0.005-3.887-0.113-5.71-0.907c-1.039-0.453-1.892-1.102-1.766-2.382c0.117-1.182,0.868-2.075,1.962-2.278
			c2.111-0.392,4.267-0.765,6.404-0.76c15.982,0.04,31.937-0.559,47.877-1.688C841.913,750.044,843.271,749.675,844.558,751.315z"/>
	</g>
	<g>
		<path fill="#5D210E" d="M545.594,868.509c-1.932-1.072-2.971-2.939-4.124-4.579c-13.313-18.917-23.22-39.456-29.146-61.853
			c-0.549-2.075-0.721-4.259-0.945-6.406c-0.086-0.827,0.035-1.768,0.996-2.195c1.245-0.553,2.073,0.181,2.714,1.064
			c1.817,2.505,2.518,5.479,3.306,8.393c2.146,7.931,4.457,15.806,7.123,23.585c4.861,14.185,11.123,27.66,19.663,40.029
			C545.516,867.034,546.075,867.475,545.594,868.509z"/>
	</g>
	<g>
		<path fill="#5D210E" d="M456.36,835.04c-5.93,4.149-12.836,4.842-19.479,5.918c-12.974,2.102-26.07,3.41-39.223,3.798
			c-2.776,0.082-7.284,1.334-7.574-2.39c-0.225-2.9,4.446-2.421,7.025-3.11c2.058-0.55,4.257-0.662,6.403-0.773
			C421.138,837.575,438.8,837.181,456.36,835.04z"/>
	</g>
	<g>
		<path fill="#5D210E" d="M842.433,439.395c15.771-1.821,33.694,9.215,38.462,23.413c1.313,3.91,2.015,7.976,0.727,12.081
			c-0.321,1.023-0.837,2.172-2.032,2.283c-1.208,0.112-1.875-0.895-2.252-1.936c-0.515-1.42-1.051-2.848-1.382-4.317
			c-3.455-15.329-14.14-23.597-27.983-28.863C846.253,441.4,844.043,441.817,842.433,439.395z"/>
	</g>
	<g>
		<path fill="#5D210E" d="M949.641,438.488c2.691,0.013,4.035,1.727,5.457,3.28c12.908,14.09,27.399,26.294,43.388,36.752
			c2.882,1.885,5.584,4.061,8.26,6.237c0.8,0.65,1.304,1.766,0.516,2.864c-0.593,0.827-1.538,0.773-2.362,0.598
			c-2.366-0.504-4.347-1.855-6.371-3.09c-13.976-8.527-25.69-19.648-36.406-31.888C957.88,448.395,953.797,443.41,949.641,438.488z"
			/>
	</g>
	<g>
		<path fill="#5D210E" d="M793.904,866.657c0.106,1.027-0.393,1.871-1.369,1.527c-2.019-0.713-4.08-1.507-5.856-2.674
			c-14.764-9.705-27.658-21.359-37.243-36.373c-1.505-2.358-3.056-4.737-3.594-7.555c-0.246-1.285-0.334-2.709,1.228-3.26
			c1.149-0.406,2.019,0.282,2.692,1.233c1.495,2.114,3.036,4.197,4.532,6.311c8.744,12.359,17.906,24.356,29.491,34.27
			c3.107,2.659,6.101,5.49,10.213,6.586C793.996,866.72,793.904,866.657,793.904,866.657z"/>
	</g>
	<g>
		<path fill="#5D210E" d="M392.298,825.108c-1.531,1.559-3.34,1.222-4.942,1.419c-16.938,2.089-33.965,3.139-50.987,4.22
			c-2.774,0.176-5.599-0.181-8.381-0.48c-1.613-0.173-2.967-1.1-2.8-2.938c0.146-1.605,1.639-1.853,2.93-1.954
			c5.38-0.419,10.761-1.021,16.148-1.103c15.103-0.231,30.209-0.238,45.314-0.334C390.431,823.933,391.29,823.898,392.298,825.108z"
			/>
	</g>
	<g>
		<path fill="#5D210E" d="M582.915,884.406c-2.48-0.152-3.867-1.846-5.417-3.211c-14.034-12.358-24.46-27.296-31.532-44.579
			c-0.945-2.311-3.002-5.756-0.596-7.031c3.267-1.731,4.277,2.421,5.772,4.579c0.731,1.055,1.219,2.285,1.77,3.457
			C560.838,854.492,569.658,870.785,582.915,884.406z"/>
	</g>
	<g>
		<path fill="#5D210E" d="M407.609,736.293c-1.3-3.332-0.373-6.294,0.48-9.046c4.573-14.762,11.923-28.102,21.392-40.268
			c1.964-2.523,4.341-4.822,8.598-4.557c-0.209,3.017-1.888,5.167-3.373,7.336c-3.773,5.51-7.737,10.891-11.429,16.453
			c-5.735,8.641-10.761,17.652-13.517,27.76C409.549,734.75,409.282,735.611,407.609,736.293z"/>
	</g>
	<g>
		<path fill="#5D210E" d="M442.288,468.859c-0.43,0.459-0.774,1.102-1.303,1.352c-22.782,10.782-44.077,24.101-64.624,38.721
			c-1.658-2.633-0.068-3.889,0.871-5.194c2.432-3.381,5.727-5.864,9.131-8.16C403.606,483.95,422.437,475.542,442.288,468.859z"/>
	</g>
	<g>
		<path fill="#5D210E" d="M797.152,705.485c-1.289,2.451-3.125,2.51-4.742,2.977c-15.568,4.505-31.411,8.018-46.816,13.124
			c-3.048,1.01-6.276,1.705-9.581,1.23c-0.911-0.131-1.692-0.567-1.889-1.486c-0.187-0.871,0.075-1.8,0.945-2.199
			c1.758-0.807,3.535-1.62,5.377-2.193c15.311-4.76,31.046-7.681,46.791-10.492C790.251,705.909,793.273,704.086,797.152,705.485z"
			/>
	</g>
	<g>
		<path fill="#5D210E" d="M660.498,291.471c-4.266-0.557-8.268-1.256-12.299-1.575c-14.26-1.127-28.522-0.363-42.779,0.197
			c-2.82,0.111-5.614,0.351-8.334-0.663c-0.88-0.328-1.559-0.913-1.566-1.823c-0.007-0.908,0.626-1.646,1.528-1.857
			c2.732-0.639,5.463-1.559,8.232-1.718c16.921-0.973,33.71-0.083,50.147,4.428C657.155,288.935,659.36,288.936,660.498,291.471z"/>
	</g>
	<g>
		<path fill="#5D210E" d="M448.422,595.893c0.482,1.304,0.049,1.896-0.49,2.15c-21.209,9.974-41.249,22.125-62.261,34.101
			C389.444,622.631,433.933,597.428,448.422,595.893z"/>
	</g>
	<g>
		<path fill="#5D210E" d="M929.645,802.162c8.64-1.473,15.594-5.71,22.764-9.437c9.36-4.865,18.536-10.09,28.235-14.288
			c1.559-0.675,3.016-1.563,4.677-1.354c1.155,1.926-0.271,2.667-1.235,3.258c-12.111,7.428-24.081,15.102-36.619,21.805
			c-3.427,1.832-7.198,2.865-11.178,2.831C933.905,804.957,931.646,804.718,929.645,802.162z"/>
	</g>
	<g>
		<path fill="#5D210E" d="M446.042,656.122c-15.38,19.074-27.997,39.841-39.398,61.417c-1.598-1.104-1.073-2.154-0.89-3.169
			c1.05-5.799,3.25-11.185,6.179-16.243c8.025-13.857,17.484-26.682,28.318-38.473C441.729,658.046,443.064,655.965,446.042,656.122
			z"/>
	</g>
	<g>
		<path fill="#5D210E" d="M963.881,780.24c-6.493,4.738-13.392,6.21-19.951,8.168c-13.353,3.987-25.747,11.732-41.26,11.414
			C908.802,793.709,954.57,779.093,963.881,780.24z"/>
	</g>
	<g>
		<path fill="#5D210E" d="M699.687,909.418c-1.973,1.397-4.16,1.095-6.239,0.531c-3.318-0.9-5.391,0.611-7.036,3.192
			c-2.908,4.563-5.967,9.02-9.658,12.991c-6.098,6.561-9.121,5.996-12.129-2.369c-1.091-3.035-1.824-6.212-2.535-9.366
			c-0.426-1.891-0.505-3.864,0.149-5.768c0.286-0.831,0.649-1.622,1.663-1.739c1.359-0.157,1.936,0.716,2.149,1.845
			c0.24,1.271,0.367,2.565,0.5,3.853c0.423,4.109,1.587,8.021,2.925,11.866c2.708,0.393,3.373-1.833,4.448-3.252
			c2.607-3.443,4.86-7.158,7.535-10.543c4.441-5.621,7.423-6.188,14.024-3.097c1.366,0.64,2.688,1.374,4.052,2.04
			C699.558,909.575,699.687,909.418,699.687,909.418z"/>
	</g>
	<g>
		<path fill="#5D210E" d="M293.083,817.795c1.348-1.891,2.762-1.535,3.927-1.508c21.914,0.509,43.827,1.082,65.751,1.642
			c-0.178,1.899-2.03,1.676-3.364,1.869c-17.815,2.584-35.714,3.093-53.649,1.717C301.48,821.188,297.245,820.209,293.083,817.795z"
			/>
	</g>
	<g>
		<path fill="#5D210E" d="M1023.254,577.689c4.837,3.629,7.606,8.755,10.796,13.567c6.213,9.372,12.224,18.869,17.253,28.949
			c1.649,3.305,3.024,6.709,3.656,10.356c0.269,1.551,0.127,3.157-1.814,3.606c-1.57,0.363-2.34-0.822-2.953-1.979
			c-0.707-1.334-1.301-2.728-1.932-4.101c-7.492-16.3-15.13-32.528-24.098-48.089
			C1023.754,579.29,1023.552,578.461,1023.254,577.689z"/>
	</g>
	<g>
		<path fill="#5D210E" d="M652.677,479.544c21.884-9.115,42.548-20.004,63.439-31.921c-0.382,2.661-1.692,3.182-2.712,3.918
			c-12.284,8.865-25.139,16.814-38.593,23.771c-4.999,2.585-10.16,4.852-15.887,5.268
			C656.835,480.733,654.601,481.45,652.677,479.544z"/>
	</g>
	<g>
		<path fill="#5D210E" d="M934.389,364.391c10.282,22.994,27.396,41.929,38.358,64.519
			C954.511,410.642,942.423,388.721,934.389,364.391z"/>
	</g>
	<g>
		<path fill="#5D210E" d="M750.551,622.96c-15.859,15.506-25.581,34.008-33.922,53.492c-1.947-5.1-0.804-9.793,0.904-14.379
			c2.203-5.918,5.745-11.115,9.289-16.278c5.023-7.316,10.411-14.346,17.302-20.047C745.67,624.469,747.026,622.552,750.551,622.96z
			"/>
	</g>
	<g>
		<path fill="#5D210E" d="M773.241,693.008c-3.032,2.939-6.071,3.546-8.776,4.669c-13.209,5.487-26.102,11.527-37.861,19.794
			c-4.076,2.866-4.18,2.717-8.881,3.125c-0.969-1.933,0.86-2.683,1.737-3.635c4.606-4.996,10.214-8.646,16.291-11.599
			c11.126-5.407,22.93-8.97,34.681-12.667C770.977,692.522,771.668,692.815,773.241,693.008z"/>
	</g>
	<g>
		<path fill="#5D210E" d="M408.236,751.647c2.979-15.461,30.48-40.869,48.059-44.789c-4.812,5.352-11.035,9.03-16.709,13.35
			c-6.021,4.585-11.725,9.512-16.809,15.121C417.883,740.727,413.079,746.205,408.236,751.647z"/>
	</g>
	<g>
		<path fill="#5D210E" d="M99.103,688.902c-3.882-1.629-6.613-4.604-9.065-7.772c-10.471-13.529-18.749-28.384-26.043-43.806
			c-1.003-2.121-1.975-4.338-1.773-6.815c0.094-1.149,0.536-2.222,1.67-2.49c1.303-0.308,1.682,0.705,2.093,1.826
			c5.442,14.841,13.487,28.37,21.303,42.012C90.716,677.843,94.947,683.253,99.103,688.902z"/>
	</g>
	<g>
		<path fill="#5D210E" d="M838.375,778.27c1.42-2.118,3.094-1.537,4.471-1.58c14.702-0.456,29.309-2.053,43.924-3.566
			c0.645-0.067,1.29-0.22,1.932-0.203c1.374,0.036,3.47-0.997,3.728,1.153c0.218,1.813-1.848,2.091-3.29,2.423
			c-13.716,3.155-27.55,5.406-41.683,5.19C844.031,781.635,840.816,780.94,838.375,778.27z"/>
	</g>
	<g>
		<path fill="#5D210E" d="M385.142,650.307c1.175-4.385,4.606-6.284,7.796-8.28c12.837-8.032,26.299-14.872,40.305-20.636
			c5.342-2.199,10.671-4.431,16.545-5.557c-10.854,5.669-21.736,11.284-32.554,17.021
			C406.507,638.543,396.908,646.304,385.142,650.307z"/>
	</g>
	<g>
		<path fill="#5D210E" d="M666.689,897.244c1.968,2.173,1.753,3.734-1.226,4.637c-2.152,0.652-4.345,0.435-6.417,0.012
			c-18.861-3.852-33.848-14.065-45.915-29.017c1.182,0.941,2.4,1.841,3.542,2.828c13.597,11.747,29.631,18.237,47.02,21.781
			c1.021,0.208,2.138-0.054,3.208-0.097C666.898,897.389,666.689,897.244,666.689,897.244z"/>
	</g>
	<g>
		<path fill="#5D210E" d="M443.29,457.356c-20.794,8.854-38.655,22.577-57.922,33.965c-0.42,0.248-1.186-0.091-2.231-0.203
			c3.231-5.729,8.16-9.197,13.231-12.424c11.678-7.433,23.882-13.877,36.751-19.022c3.165-1.265,6.331-2.527,9.497-3.79
			C442.84,456.373,443.065,456.864,443.29,457.356z"/>
	</g>
	<g>
		<path fill="#5D210E" d="M437.557,489.859c-17.912,12.722-34.401,27.119-50.232,42.486c-1.319-2.156,0.3-3.179,0.991-4.341
			c4.919-8.269,11.391-15.104,19.276-20.622c7.593-5.313,15.337-10.39,23.347-15.052
			C432.933,491.169,434.86,489.756,437.557,489.859z"/>
	</g>
	<g>
		<path fill="#5D210E" d="M793.904,866.657c0,0,0.093,0.063,0.094,0.064c-10.012-10.74-19.803-21.662-27.753-34.083
			c-0.928-1.449-1.879-2.887-2.729-4.381c-0.162-0.284,0.095-0.808,0.175-1.324c1.704-0.945,2.833,0.347,3.797,1.307
			c2.134,2.126,4.217,4.335,6.071,6.706c5.317,6.802,10.437,13.757,15.77,20.545c5.304,6.75,10.955,13.211,16.962,19.448
			C801.04,873.814,798.188,869.151,793.904,866.657z"/>
	</g>
	<g>
		<path fill="#5D210E" d="M550.096,299.039c-16.401-9.393-34.933-13.072-53.056-20.375c3.296-2.094,6.119-1.942,8.693-1.509
			C522.683,280.003,537.478,287.392,550.096,299.039z"/>
	</g>
	<g>
		<path fill="#5D210E" d="M723.215,419.496c-1.721,6.758-6.052,9.145-9.881,11.723c-11.666,7.855-24.075,14.38-37.107,19.691
			c-3.105,1.265-6.068,3.008-9.744,2.859C685.176,442.918,703.734,431.916,723.215,419.496z"/>
	</g>
	<g>
		<path fill="#5D210E" d="M719.484,692.923c1.871-24.25,16.892-40.844,33.474-56.5c-1.969,5.161-6.312,8.697-9.189,13.265
			c-2.995,4.756-6.233,9.367-9.053,14.223c-2.711,4.668-5.187,9.492-7.467,14.386c-2.337,5.016-4.311,10.201-6.443,15.312
			C720.364,693.381,719.924,693.152,719.484,692.923z"/>
	</g>
	<g>
		<path fill="#5D210E" d="M866.229,412.494c-1.728,2.217-3.69,2.426-5.559,2.717c-10.441,1.622-20.857,3.495-31.429,4.045
			c-2.995,0.156-6.037-0.114-9.023-0.471c-1.446-0.172-2.904-0.836-4.191-1.568c-1.321-0.752-2.51-1.883-1.734-3.678
			c0.634-1.465,1.978-1.344,3.309-1.268c4.948,0.281,9.897,0.617,14.85,0.734C843.539,413.266,854.63,413.398,866.229,412.494z"/>
	</g>
	<g>
		<path fill="#5D210E" d="M851.646,557.415c-1.723-2.862-0.26-3.94,0.581-5.022c3.299-4.245,6.667-8.441,10.108-12.573
			c5.241-6.294,10.405-12.626,13.799-20.18c0.351-0.781,0.76-1.553,1.253-2.251c0.731-1.034,1.487-2.33,3.044-1.655
			c1.119,0.485,1.242,1.703,1.118,2.777c-0.173,1.488-0.423,2.981-0.807,4.428c-0.725,2.732-2.041,5.213-3.694,7.487
			C869.799,540.4,860.219,548.111,851.646,557.415z"/>
	</g>
	<g>
		<path fill="#5D210E" d="M436.726,520.27c-0.035,1.223-1.105,1.61-2.007,2.122c-14.858,8.445-28.619,18.572-42.884,27.926
			c-1.978,1.297-4.031,2.566-6.212,3.444c-2.296,0.925-4.622,0.896-6.208-2.446c3.305,0.3,5.221-1.668,7.401-3.194
			c15.253-10.677,31.491-19.664,48.153-27.915C435.523,519.934,436.131,519.491,436.726,520.27z"/>
	</g>
	<g>
		<path fill="#5D210E" d="M716.904,415.819c-0.104,3.941-2.352,6.145-5.163,7.711c-4.318,2.405-8.733,4.663-13.234,6.705
			c-9.012,4.09-18.11,7.992-27.172,11.972c-1.902,0.835-3.722,2.064-7.156,1.063c8.865-5.952,17.617-10.283,26.312-14.669
			C699.067,424.275,707.78,420.22,716.904,415.819z"/>
	</g>
	<g>
		<path fill="#5D210E" d="M555.2,869.511c-2.281-1.254-3.205-3.296-4.272-5.111c-8.653-14.73-15.827-30.182-22.247-45.997
			c-1.068-2.631-1.697-5.352-1.816-8.182c-0.034-0.823-0.112-1.77,0.902-2.18c1.018-0.412,1.699,0.264,2.127,0.963
			c0.784,1.282,1.533,2.622,2.041,4.03c6.816,18.883,13.726,37.724,23.513,55.346C555.523,868.514,555.37,868.773,555.2,869.511z"/>
	</g>
	<g>
		<path fill="#5D210E" d="M812.16,870.927c-1.899,0.224-2.739-0.916-3.678-1.73c-11.982-10.382-22.761-21.857-31.611-35.065
			c-0.601-0.897-1.164-1.821-1.712-2.752c-0.641-1.091-1.667-2.323-0.225-3.377c1.019-0.745,2.1,0.094,2.856,0.838
			c1.845,1.816,3.789,3.58,5.349,5.628c8.782,11.533,17.879,22.796,27.77,33.406C811.579,868.595,812.566,869.278,812.16,870.927z"
			/>
	</g>
	<g>
		<path fill="#5D210E" d="M962.096,827.253c-4.166,15.149-25.397,42.358-36.155,46.308
			C938.297,857.22,950.51,842.45,962.096,827.253z"/>
	</g>
	<g>
		<path fill="#5D210E" d="M610.737,891.126c-14.265-13.963-22.148-31.205-31.195-48.276c3.37-1.027,4.465,0.819,5.603,2.172
			c2.926,3.479,4.975,7.536,7.083,11.528c5.624,10.647,10.747,21.587,18.505,30.96C611.261,888.148,611.767,888.899,610.737,891.126
			z"/>
	</g>
	<g>
		<path fill="#5D210E" d="M699.238,888.646c-4.775-7.344-7.193-40.721-3.886-49.449c1.536,0.558,1.379,1.993,1.527,3.152
			c1.534,11.997,3.038,23.999,4.496,36.006C701.791,881.774,702.007,885.21,699.238,888.646z"/>
	</g>
	<g>
		<path fill="#5D210E" d="M387.988,537.964c5.712-11.356,40.163-34.683,51.585-35.083
			C421.26,512.935,405.381,526.514,387.988,537.964z"/>
	</g>
	<g>
		<path fill="#5D210E" d="M446.827,606.201l-58.825,32.579C391.431,630.716,431.639,608.448,446.827,606.201z"/>
	</g>
	<g>
		<path fill="#5D210E" d="M483.989,821.604c-2.093-3.109-1.921-5.962-1.822-8.706c0.44-12.211,4.716-23.205,10.968-33.523
			c0.775-1.279,1.819-2.411,2.836-3.522c0.758-0.828,1.787-1.359,2.9-0.794c1.438,0.731,1.482,2.037,0.908,3.333
			c-0.786,1.776-1.668,3.511-2.558,5.238c-2.476,4.805-5.118,9.529-7.431,14.41c-2.705,5.707-4.5,11.689-4.399,18.12
			C485.416,817.86,485.449,819.634,483.989,821.604z"/>
	</g>
	<g>
		<path fill="#5D210E" d="M514.653,844.684c-6.601,2.157-51.795,5.076-56.369,3.837c1.746-2.416,4.281-2.752,6.66-3.245
			c11.68-2.423,23.544-2.267,35.374-2.221C504.717,843.073,509.274,842.459,514.653,844.684z"/>
	</g>
	<g>
		<path fill="#5D210E" d="M724.314,434.731c-18.174,10.723-35.268,23.402-55.485,30.999c-0.862-3.082,1.139-3.383,2.173-4.039
			c4.904-3.114,9.787-6.314,14.943-8.967c11.1-5.712,22.326-11.176,33.172-17.374c1.437-0.821,3.038-1.353,4.563-2.019
			C723.891,433.797,724.103,434.264,724.314,434.731z"/>
	</g>
	<g>
		<path fill="#5D210E" d="M441.745,424.058c-4.222,2.961-9.26,3.166-13.972,4.227c-8.814,1.984-17.554,4.256-26.354,6.271
			c-4.42,1.012-9.138,2.741-14.352-1.318C405.271,426.8,423.609,426.072,441.745,424.058z"/>
	</g>
	<g>
		<path fill="#5D210E" d="M422.092,397.812c3.449-0.116,6.897-0.289,10.347-0.314c1.063-0.008,2.148,0.408,2.205,1.791
			c0.044,1.078-0.812,1.425-1.625,1.715c-0.813,0.289-1.643,0.55-2.485,0.73c-9.499,2.035-18.978,4.171-28.516,5.999
			c-2.807,0.538-7.429,2.121-8.168-0.904c-0.779-3.188,4.108-3.376,6.743-4.28C407.557,400.158,414.795,398.882,422.092,397.812z"/>
	</g>
	<g>
		<path fill="#5D210E" d="M1128.284,697.125c-0.972-3.803,0.1-6.192,1.101-8.497c3.482-8.024,9.031-14.661,14.606-21.262
			c0.543-0.643,1.29-1.154,2.025-1.586c1.001-0.588,2.071-0.542,3.024,0.166c1,0.742,1.153,1.8,0.762,2.885
			c-0.363,1.007-0.789,2.02-1.364,2.918C1142.746,680.633,1136.204,688.834,1128.284,697.125z"/>
	</g>
	<g>
		<path fill="#5D210E" d="M433.241,436.168c-2.33,2.082-5.039,1.947-7.379,2.382c-11.903,2.211-23.73,4.979-35.88,5.597
			c-2.932,0.149-6.006,0.6-8.484-1.999C388.252,438.875,423.099,434.822,433.241,436.168z"/>
	</g>
	<g>
		<path fill="#5D210E" d="M819.542,333.519c18.853,7.1,37.085,15.169,55.055,23.789c-0.878,2.265-2.036,1.275-2.817,0.975
			c-13.694-5.257-27.407-10.471-41.018-15.936C826.26,340.539,821.76,338.402,819.542,333.519z"/>
	</g>
	<g>
		<path fill="#5D210E" d="M827.014,350.688c18.271,5.5,36.394,11.241,54.844,19.208c-3.204,1.395-5.009,0.525-6.806-0.007
			c-11.383-3.37-22.766-6.742-34.129-10.176c-4.565-1.379-8.972-3.166-12.789-6.114
			C827.271,352.932,825.677,352.332,827.014,350.688z"/>
	</g>
	<g>
		<path fill="#5D210E" d="M672.512,892.852c1.321,2.409,4.72,1.62,6.32,4.244c-4.06,3.826-8.158,0.554-12.147,0.149
			c0.003,0,0.213,0.145,0.215,0.144c-9.176-5.173-17.973-10.895-25.793-18.011c-2.369-2.156-4.886-4.189-6.503-7.34
			c1.961-0.705,2.757,0.915,3.76,1.749c5.971,4.964,12.493,9.081,19.289,12.794c2.076,1.134,4.149,2.256,6.589,2.368
			C666.756,890.765,669.692,891.685,672.512,892.852z"/>
	</g>
	<g>
		<path fill="#5D210E" d="M817.865,324.84c2.763-1.838,4.979-0.416,7.114,0.181c5.614,1.569,10.853,4.132,16.12,6.584
			c9.905,4.61,19.786,9.272,29.433,14.606c-6.355-0.217-11.902-3.162-17.671-5.238c-6.072-2.185-12.083-4.555-18.05-7.016
			C828.937,331.534,823.046,329.083,817.865,324.84z"/>
	</g>
	<g>
		<path fill="#5D210E" d="M716.785,657.724c-2.511-4.104-1.45-8.107-0.627-12.023c1.173-5.584,4.064-10.414,7.237-15.069
			c4.958-7.275,11.186-13.307,18.36-18.507c-4.372,7.56-10.776,13.59-15.133,21.104
			C722.156,640.931,719.597,649.338,716.785,657.724z"/>
	</g>
	<g>
		<path fill="#5D210E" d="M433.458,410.996c-1.545,2.971-4.404,3.279-7.127,3.69c-9.005,1.357-18.096,1.462-27.172,1.741
			c-4.914,0.151-9.83,0.244-15.29,0.376C390.131,412.63,425.716,408.616,433.458,410.996z"/>
	</g>
	<g>
		<path fill="#5D210E" d="M1006.76,711.767c1.554-3.152,3.767-3.678,5.607-4.486c10.288-4.515,21.101-7.547,31.752-11.036
			c0.611-0.2,1.261-0.337,1.901-0.377c1.223-0.076,2.808-0.719,3.447,0.756c0.806,1.861-0.973,2.661-2.142,3.449
			c-3.064,2.065-6.468,3.478-10.035,4.377c-8.57,2.161-17.169,4.205-25.76,6.286C1010.295,711.035,1009.045,711.275,1006.76,711.767
			z"/>
	</g>
	<g>
		<path fill="#5D210E" d="M872.152,400.947c-1.994,1.078-4.558,0.917-6.971,1.042c-9.908,0.513-19.823,0.432-29.736,0.049
			c-2.831-0.109-5.554-0.669-8.168-1.769c-0.828-0.349-1.697-0.849-1.669-1.759c0.038-1.239,1.07-1.785,2.201-1.875
			c1.714-0.136,3.449-0.313,5.155-0.191c12.679,0.903,25.353,1.867,38.026,2.849C871.542,399.336,872.355,399.402,872.152,400.947z"
			/>
	</g>
	<g>
		<path fill="#5D210E" d="M802.675,308.353c12.754,1.962,47.096,15.388,55.675,21.5c-0.35,1.561-1.638,1.22-2.47,0.905
			c-17.182-6.517-34.403-12.938-51.229-20.349C804.127,310.179,803.786,309.534,802.675,308.353z"/>
	</g>
	<g>
		<path fill="#5D210E" d="M979.775,358.803c-1.768,1.123-3.304,0.052-4.874-0.321c-11.532-2.743-21.37-9.138-31.616-14.657
			c-1.074-0.579-1.639-1.413-1.527-2.575c0.142-1.472,1.139-2.247,2.523-2.534c2.308-0.479,4.265,0.49,6.075,1.696
			c3.594,2.395,7.08,4.955,10.68,7.342c4.691,3.11,9.714,5.624,14.768,8.088C977.231,356.539,979.242,356.657,979.775,358.803z"/>
	</g>
	<g>
		<path fill="#5D210E" d="M722.262,707.081c0.095-13.225,16.973-41.966,29.086-49.559
			C740.388,673.268,730.375,689.558,722.262,707.081z"/>
	</g>
	<g>
		<path fill="#5D210E" d="M664.868,427.677c7.493-5.932,35.213-17.654,44.151-19.294c-0.092,2.585-1.944,3.875-3.688,4.816
			C692.58,420.084,678.799,424.13,664.868,427.677z"/>
	</g>
	<g>
		<path fill="#5D210E" d="M984.399,755.586c14.977-10.369,30.848-19.085,48.952-25.747c-1.922,4.272-5.037,5.817-7.991,7.333
			c-6.918,3.551-13.95,6.879-20.934,10.3c-6.371,3.12-12.74,6.244-19.109,9.367C985.01,756.422,984.704,756.004,984.399,755.586z"/>
	</g>
	<g>
		<path fill="#5D210E" d="M1013.322,693.943c0.698-2.319,2.538-2.567,4.069-3.075c9.602-3.185,19.239-6.264,29.064-8.71
			c1.04-0.259,2.102-0.459,3.165-0.587c0.891-0.107,1.778,0.139,2.227,0.966c0.668,1.231-0.246,2.081-1.079,2.643
			c-1.414,0.954-2.895,1.975-4.501,2.453c-9.495,2.826-19.12,5.148-28.868,6.932C1016.183,694.788,1014.869,695.11,1013.322,693.943
			z"/>
	</g>
	<g>
		<path fill="#5D210E" d="M458.069,730.554c-14.122,5.73-26.413,14.634-39.388,22.293
			C421.764,743.463,446.867,729.194,458.069,730.554z"/>
	</g>
	<g>
		<path fill="#5D210E" d="M467.414,750.282c-16.307,5.167-32.269,11.587-49.436,13.19
			C433.286,754.54,450.509,752.928,467.414,750.282z"/>
	</g>
	<g>
		<path fill="#5D210E" d="M1040.039,708.505c-1.778,4.413-5.634,5.992-9.199,7.652c-8.793,4.095-17.686,7.974-26.573,11.864
			c-2.897,1.268-5.496,3.364-9.09,3.658C999.857,725.45,1029.068,710.378,1040.039,708.505z"/>
	</g>
	<g>
		<path fill="#5D210E" d="M835.888,385.737c5.918-3.28,37.756,0.833,46.306,5.982C875.61,393.26,842.294,388.956,835.888,385.737z"
			/>
	</g>
	<g>
		<path fill="#5D210E" d="M431.768,845.09c14.965-5.629,29.434-7.549,43.887-9.531c0.636-0.087,1.288-0.074,1.932-0.066
			c0.925,0.01,1.779,0.392,2.04,1.255c0.261,0.865-0.259,1.616-1.02,2.154c-1.264,0.894-2.69,1.349-4.196,1.56
			c-2.557,0.357-5.111,0.788-7.683,0.979c-9.451,0.705-18.846,1.816-28.161,3.581C436.684,845.379,434.797,845.955,431.768,845.09z"
			/>
	</g>
	<g>
		<path fill="#5D210E" d="M386.498,577.68c14.932-5.534,30.914-5.537,47.388-8.848C426.695,573.997,394.45,580.15,386.498,577.68z"
			/>
	</g>
	<g>
		<path fill="#5D210E" d="M953.784,391.62c-1.599-0.019-2.086-1.348-2.77-2.393c-6.624-10.116-11.567-21.069-16.039-32.257
			c-0.483-1.209-1.227-2.624,0.114-3.483c1.722-1.103,2.858,0.509,3.601,1.664c1.27,1.973,2.379,4.101,3.218,6.293
			c3.456,9.028,6.704,18.138,11.474,26.601C953.991,389.126,954.647,390.32,953.784,391.62z"/>
	</g>
	<g>
		<path fill="#5D210E" d="M672.512,892.852c-2.82-1.167-5.756-2.086-8.269-3.904c-3.368-2.643-6.874-5.131-10.059-7.977
			c-2.61-2.333-5.195-4.87-5.608-8.846c9.136,9.477,21.895,12.824,33.055,19.752C678.324,894.523,675.275,892.17,672.512,892.852z"
			/>
	</g>
	<g>
		<path fill="#5D210E" d="M497.346,829.677c-4.85-9.482-2.146-33.675,4.699-43.931c1.496,5.409-0.746,9.983-1.31,14.632
			c-0.597,4.922-1.525,9.811-2.495,14.677C497.278,819.88,498.607,824.823,497.346,829.677z"/>
	</g>
	<g>
		<path fill="#5D210E" d="M849.069,890.251c-11.57-11.02-17.835-24.865-21.292-40.205
			C833.615,864.119,843.737,875.91,849.069,890.251z"/>
	</g>
	<g>
		<path fill="#5D210E" d="M1037.23,717.702c-0.26,4.171-2.476,5.609-4.489,7.098c-3.324,2.459-7.133,4.043-10.932,5.579
			c-5.803,2.346-11.633,4.618-17.172,7.56c-1.127,0.599-2.238,1.373-4.373,0.431C1011.432,729.307,1024.125,724.038,1037.23,717.702
			z"/>
	</g>
	<g>
		<path fill="#5D210E" d="M228.122,759.651c2.451,12.104,1.352,24.383,2.817,37.134c-3.328-0.585-3.67-2.532-4.226-4.249
			C224.08,784.388,224.436,766.906,228.122,759.651z"/>
	</g>
	<g>
		<path fill="#5D210E" d="M387.374,594.812c15.448-6.485,31.733-9.461,47.981-12.581
			C429.348,586.749,395.634,595.734,387.374,594.812z"/>
	</g>
	<g>
		<path fill="#5D210E" d="M219.067,750.541c-0.439,15.472-0.022,30.673,3.938,46.092c-3.927-2.038-4.706-5.607-5.706-8.877
			c-2.179-7.122-1.855-14.499-1.682-21.814c0.097-4.078,0.686-8.146,1.081-12.215C216.823,752.448,216.99,751.148,219.067,750.541z"
			/>
	</g>
	<g>
		<path fill="#5D210E" d="M896.071,856.11c-6.018,12.113-8.921,25.457-16.11,37.635C878.02,884.978,887.708,862.076,896.071,856.11z
			"/>
	</g>
	<g>
		<path fill="#5D210E" d="M882.85,857.518c-1.521,10.678-3.056,21.318-6.279,31.61c-0.193,0.616-0.444,1.226-0.759,1.788
			c-0.918,1.639-1.575,4.152-4.027,3.266c-2.095-0.756-1.187-3.03-0.78-4.584C873.894,878.552,877.953,867.918,882.85,857.518z"/>
	</g>
	<g>
		<path fill="#5D210E" d="M393.343,618.5c-0.9-1.965,0.343-2.78,1.139-3.615c6.883-7.21,34.915-21.815,45.593-23.296
			c-7.538,5.028-15.994,8.413-23.913,12.755C408.327,608.639,400.607,613.106,393.343,618.5z"/>
	</g>
	<g>
		<path fill="#5D210E" d="M674.012,410.077c2.983-4.038,7.956-4.453,12.268-5.605c7.765-2.074,15.591-4.701,23.779-3.173
			c0.092,0.507,0.184,1.014,0.276,1.52c-11.879,2.915-23.757,5.829-35.636,8.744C674.47,411.068,674.241,410.573,674.012,410.077z"
			/>
	</g>
	<g>
		<path fill="#5D210E" d="M472.043,759.217c-11.596,3.142-23.282,5.641-36.435,8.165c2.398-4.453,5.512-5.05,8.161-5.657
			C453.037,759.602,462.363,757.563,472.043,759.217z"/>
	</g>
	<g>
		<path fill="#5D210E" d="M570.198,298.904c-1.788,1.377-2.73,0.724-3.638,0.185c-6.723-3.997-13.908-6.887-21.338-9.289
			c-2.028-0.656-5.664-1.043-4.745-4.066c0.889-2.925,4.087-1.436,6.236-0.847C555.787,287.374,563.064,292.758,570.198,298.904z"/>
	</g>
	<g>
		<path fill="#5D210E" d="M427.744,555.207c-12.883,8.051-26.347,14.699-41.723,16.546
			C398.78,563.445,414.298,561.864,427.744,555.207z"/>
	</g>
	<g>
		<path fill="#5D210E" d="M870.044,378.707c-12.773,1.231-34.351-4.883-39.432-11.408
			C844.141,372.316,857.576,373.727,870.044,378.707z"/>
	</g>
	<g>
		<path fill="#5D210E" d="M986.557,762.561c11.085-6.555,22.585-12.153,33.945-19.037
			C1017.527,750.441,997.224,761.998,986.557,762.561z"/>
	</g>
	<g>
		<path fill="#5D210E" d="M1052.523,674.772c-9.762-7.128-16.458-15.862-25.443-21.955
			C1037.266,654.495,1051.527,666.436,1052.523,674.772z"/>
	</g>
	<g>
		<path fill="#5D210E" d="M1049.871,656.102c-8.809-7.374-14.081-17.331-19.774-26.991
			C1037.458,637.532,1046.92,644.377,1049.871,656.102z"/>
	</g>
	<g>
		<path fill="#5D210E" d="M447.261,770.236c7.739-4.696,16.484-6.01,25.623-7.949C469.881,766.454,456.281,770.843,447.261,770.236z
			"/>
	</g>
	<g>
		<path fill="#5D210E" d="M849.684,865.497c2.122,8.396,6.1,16.116,8.715,24.322C851.693,883.102,847.874,875.321,849.684,865.497z"
			/>
	</g>
	<g>
		<path fill="#5D210E" d="M860.619,874.505c0.939,5.878,3.268,11.34,5.809,17.291C860.259,889.165,858.138,882.709,860.619,874.505z
			"/>
	</g>
</g>
</svg>
